<mxfile host="65bd71144e">
    <diagram id="SrHDlGrFsmbcJby8BCCq" name="Page-1">
        <mxGraphModel dx="1016" dy="618" grid="1" gridSize="10" guides="1" tooltips="1" connect="1" arrows="1" fold="1" page="1" pageScale="1" pageWidth="1169" pageHeight="827" math="0" shadow="0">
            <root>
                <mxCell id="0"/>
                <mxCell id="1" parent="0"/>
                <mxCell id="KOSUviGnnStbs8bRk7O3-40" value="" style="rounded=1;whiteSpace=wrap;html=1;align=left;arcSize=3;fillColor=#f5f5f5;strokeColor=#666666;fontColor=#333333;" parent="1" vertex="1">
                    <mxGeometry x="80" y="160" width="280" height="360" as="geometry"/>
                </mxCell>
                <mxCell id="KOSUviGnnStbs8bRk7O3-4" value="Repository (Template)" style="shape=image;verticalLabelPosition=bottom;verticalAlign=top;imageAspect=0;aspect=fixed;image=data:image/png,iVBORw0KGgoAAAANSUhEUgAAAKAAAACgCAYAAAH8yFe7AAAABGdBTUEAALGPC/xhBQAAADhlWElmTU0AKgAAAAgAAYdpAAQAAAABAAAAGgAAAAAAAqACAAQAAAABAAAAoKADAAQAAAABAAAAoAAAAACEJDuzAAAL3ElEQVR4Ae2dW+xuxxjG61DUsXvXbqVKBAmaSKoEpQ6JXQnhQoXE4ULdlAuaRoIbrAtC4twLEi7YDTcSh5Y4VNI4pGk0ISq46cVusnU7lKpDNqrK8/z393aP+a/DzJqZNbP2et7k/WbWHN/5rfdbx2/mO+OMzckDBkb8fqQ/cCDPTe7cjbF4aMHL/EZCrLjPrzS2HdJgSJn7+4gqfH+tkcjp0eB/R0a4LytkyEO+uq8xJjy4N/VkYjeSZ1k3WWQq7JwCHLLpMSed0X2OPWbhQVS4a9eADZsNM93kZovEhO5OceO9bYTsFKt4xCIKt07AHNbn0PkJA9uh5faqTxW+tK+TKcc+u6/SWNpUg3ePVe7Lm2qwr85o2vobPDQ6vp7MqSHf2VNnNGlRxzZL7HziH62jHJvnDXNqjsKUnTCPepgbTYgN1cImjJIRItAmgc4xy407ycHRK1Hy2SGlpw6uIW18IaSQV+ZX2Havgr3sU5s5DLziVHP5Y6kGvhcmFT1Cphr4ERg4dMrMgjPVwHe1TvDjrRPkbryGH6UkdRfTrnfOMO5FqPPYkHpjd/Fj9buxzIC8H6PMWQHlgp7iTbUzdJgZSp9q7//yYw4RD0NNnqIo7Nx8j/G+diz9Klbw5HpsH/XSim3SEPohQ6rdEDIuEQEREAEREIHKBPrOoUMmdUMZM9J5Hrf3HTOq76/SOUlu3EmOiga3keOCNcqy2MKpBt4W22Fs+VQDnxrbYWz5VANjvmSxtu2VTzVwVqcxlVIN5FVzUYpz7+oMQlHj2EkqQTO0WJhq4IOKWbZrONXAe1s3UD6YuouL35ynGviz1n0w6FVCyiBSCab0HVQ39FvYBbUWVyhrm1kbwziC20s9F499i0P3DuwdllQD2XKfIWOGD1vTkxNj4EtR/xe7NmLuyA56/R7wtkc3+0Y/VOHNyDhnl/lZhPdAh64HLf25KHPJro4FJxD5vG2UDod25VB6tD0xu3iscdegXG2O9RecR8Oo5zk1LM1JUlQEREAEREAEREAEREAEREAEPAIxN5xe1d7N0OmSvZUXSuxy9pP73tCe4/lG2raFOccQ2hZnWhyGcgbf90MrTZWzAU+VU/4AgZoAPwmb7OHDQwbsaz65JsCrQYfHYCof4K1SagJcJTDf6NoA3waDLvKNWtN27rNwzNhfgsJ8/k7JfTl1stUFPmsC/OGawdm+qf0VNjtWG9YE+HJQs8sYAZxB4AbU4fvIp82o20yVmsdAQvhyMyRmGlLzKzzT5Laq1QTIKZZ2DDyzLSzh1tQEyEm0div373CT2ypZE+DSJOwXFI/L2XHuO4BuZxwfDrT6hOUm2JbteWCps/B1MJJrJrQk9kA1q02lvsKtwcsKzW2slAe6fYzFeRaeI7kPPXNs2KtTG6AZHgpkLnD2Y8fkrGf8UMNtoFPhM1HgtSOFfoK87zj5BiTUDr9857QVEv0DCn0mpOBayhCIQQmxObZ8SJtJZUqdRFKMuhWVDRTPnJIRAgbKDQmQQnhu+hFnm/kSEPgtlJC4WMmYcH7ecSgv0F8zVlB5IiACIiACIiACIiACIiACIiACIiACIiACIiACIiACIiACItBDIPR9bE/V3qQXIJW/fW5RirwTzrmYIv8V4Q0tktvZ9AiE50Kz/m4n50873rQz9GsIbaUtJnX8gHR7n3U++P6bc5kvzN19zhfrB3bGufBy2zu3vah/oo3pJCfAmH5Pm7ICmLgrawJ8HWznX6bYfxgmDqVO9ZwnkdgRfGVX4U8Ic14NxNqRVL6mBx7dWW7/PpQ0kFqVa3rgk2sNOme/NT0w5ziqtSWAiegFcMUA+Yd970u0v3r1micRLtpM4a9TD+3FVvhR8yvMn/ZSbj4ZrPOzpgdy5/F5pIFcJcGaHkhgq4bHAdQGSBtWLQKYuPtqA+Rj9lVLTYA8/v0d+r01E6wJ0LhxhudqpSZAzt+9Gnr+aunB8JoAOfH5U2uGR9trAlw7uz37BTBxNwrgigHeAdt5KTM1VzhxiGWr1/RAO/t+ouwQy7ZeE+ArMbTfQB9TdohlW6/5OIvLnzyh7PDKt17TA8uPboEeBDAR8lYA8gVWESlxDOTST30PCLoiI6jcaAkP7INXeZjlui/hgXxI8KFyJs9uuZtdc6RiCQ/kH61sRkoAtBfmm4BYAmAouGMoyHvhWA1tf5FyNQFesMgIC3dS4iQSa3LobCl6anOS0wPv3Y3uoc2NsqBBOT3wFtjJuXLvhn4O6i/2yl/k557w8ki0aYvLIjool+9ysntx6Ndn0DIvo/O2/U033wYTaoNf/klo/C3QGPkwCv8rpsJU2ZweyL466CXQi6F+27cjLafcjsZ+Dw3xwKModz30tBJ6lHlVyMBiy4e0mVwm50kk2Zg1NtAaQHflXlvNd41cF7HZ/UpyqhfP0pbmhvbWztIWMW4NnRiQIx44eiGFHmhl3HAvUx/74RCkL/wXGhce45IdAV7cEghfsE/N1uTXmGWPQyUiIAIiIAIiIAIiIAIiIAIiIAIiIAIiIAIiIAIiIAIiIAIiIAIiIAIiIAIiIAIiIAIiIAIiIAIiIAIiIAIiIAIiIAI5CYTO7svZZ2xb56DC86BPgXJxLX/iHZIkIPAP6O+gv4T+HPofaPPSsgO+EPQua55guwb+DaZxrjbDZqVVB3wViD3HofZPxLlC3q+h/uR3Fuv44UjnxLcQ5X48G8ovrP+XoZ9G2p+hTUprE1wN0rMssgs/hpDTDfuczyu6yU1OfKOT8e8NfwB15SJ3o7V4qw7ozza0NVRa49eiPT6rpq+ZW3XAFnesbCpAQA5YAKqaDCewRQfkOkp8RMHrJlNeO0kqENiiA74MnP1xH0Zaq08EKrjFcl36O2K5nuv19EF0zQfaXNPwo1Au6nMQyqOhZGECTd8hFWTxV7RN55NUJrDFI2Bl5OreJSAHdGkovjgBOeDiyNWhS2CLDvgoAOA7ZXsEwzcHb3ShKL4cgS06IO+Cn+Eg5mu/L0FD1j13qimag8AWHfAqgLsCysX2efT7KvRc6D1QycIEtvoY5ovgTJVUJrDFI2Bl5OreJSAHdGkovjgBOeDiyNWhS2CrDvgOQODrOD6KuQF6PlRSgcAWb0KuAWc6oAnnUdwB5T9W6k7YqCwUbvEI+B6w/anDl053OVTO50BZKrrFIyDnz7oz7pZirX56CGzxCNiDQUm1CMgBa5FXv3sE5IByhKoEtngNSOCHoPwnU4bfgH4XKqlAYIsO+AFw7hzWVyLOZ4IHoPc56YouQGCLp+Bvgau/esB1SJPzLeBwfhdbPALyGeCZPght1yGwxSNgHdLqtZeAHLAXy6oT/Qn2/nZTg5MDNrU7shjDlWRdeby70Vp8TdeAtJUrGjwcOvWtfmJroBewh3fxL4ZySWNXuGxvs7IWB+wiCb41svzpXNy/429qrGtxQIPG9Y7/AvXXcbGjI8sxv2noNLKAnECbnGjFO3yuALYKWYsDfhs0b1kF0fpGXlrfhHAL1nITIucL36erKrkWB8wN9RVo8BjUVkcoFbIP9iUZILCWU/CA+bOTeUpfQi5AJ+xr6q59CVua7GOrDujvjNwO4t8k+f1pe0dgq6dgOUAjBFp1wD96fJ7vbWuznwAXWLrYy7rT225qM/epJ9fgHo2GOHVy7q9W7kbda6F3QfvEP0Xm5jDVPr/4r4c+vc+4jGn85c83M7aXvanc4HMbeCEafDX0rBkN34g6PxqoN+UgA9WCk6faPw8tvT24tfiCt6HK16En4qsuW6N1ByxFY8pBUvst3X6qfc3Ub/UasBlAMqQsATngNF+uoMoJTMd3yjjTJCIwmwBPka76DfEa7YhXxi1vcZZhWV8s30I/X9sbJ2COYSFx8CX+rVBL88NrkUf1022bde2HAJZmIbIkInCKgDnGWMhHOUOnW75BYh7LjLVheSgmEYFTBHg9Z87B6ZgWd49ip0pPx/yjp/tvnFz6TSICIiACIiACIiACIiACIiACIiACIiACIiACIiACIiACIiACIiACIiACIiACIiACIiACIiACIiACJQn8D8TbvmgIoux5AAAAAElFTkSuQmCC;fontSize=18;fontColor=#000000;" parent="1" vertex="1">
                    <mxGeometry x="170" y="80" width="80" height="80" as="geometry"/>
                </mxCell>
                <mxCell id="KOSUviGnnStbs8bRk7O3-5" value="issue_template.md" style="shape=image;verticalLabelPosition=middle;verticalAlign=middle;imageAspect=0;aspect=fixed;image=data:image/png,iVBORw0KGgoAAAANSUhEUgAAAKAAAACgCAYAAAH8yFe7AAAABGdBTUEAALGPC/xhBQAAADhlWElmTU0AKgAAAAgAAYdpAAQAAAABAAAAGgAAAAAAAqACAAQAAAABAAAAoKADAAQAAAABAAAAoAAAAACEJDuzAAALh0lEQVR4Ae2dP8w+RRHHXwVMjCYQosQCOkNhgj/pLO0MCWphQSG1CYkUVnb6dJY0FGiEzsTQGQtLQkVhgf9iIx2GwmDQaExUUGf0mZd993b3Zmb/3N7dd5P73d3uzOzMZ+f29u55n99zc4NCBP6j2D7dmtQ/cgbvzzVcvZTmj8jBdf+v6Pz2tGQwNnKrRAdZgx8NpaLjFEsRCQ1epJL3Qz0MO46PQw/vtJVCviMYnezYYGpQfkXhPUDbxwr7+yIEt6cpg/duWx0H3kHJdpXyMBS+hCc4BoE0gd9TdWoejOvS2olaVlwrfElmS+lKEa9iZb7OuVz+92/0T+lKyd1TxGBk6v+nJYOp8LkTt0GXhyWGyZDWPDyhwXiUP0GMfkNb6X7Co5wbsMXK4e8k/ARt85Ss61cXLwpXNTIKMxABgb0SSN0DPLHw6vR9j6Jntvb0w9Nd9qmhZHArBy8lp8K2rRwMfSg6O4ODobOL4/j2uRBIVGgvnPA+5c5Bj4Nhxwn/k1VDHQTBcAw0Q/x5Uvg3bR9ct/A4VxfL8JLQNQ+uOejJN/JlUd6kmicXtYqKNQdjE5e44gznpwz6DAOLGEEABEBgDgJriwHt2k8TzVpfGhsLmVYOuu2MemhaRK6tOJyDPFTx9raWxlWOc/G7Wh3rgrVForMNdU5uMcTcJz+zqMoWDoYE+fh7JU+tDnK+xTmYOn+q0GnsYJGmNQcfK3SsbYodLOajlaDWiZJcmIPhcVLH6mBqOFN1panHRNA6xGy8tpgctBKsdY71p3cwzLvwOBm8lWCPaaZ4FVtz8BTTzLFyUDPE/BEyv6iMX0pazsMLwERwzcHXyfKPabuPNr6geC+b5fwV0pPS1MEvidWGe5OD1mmmhZ/cp6xgwuOk7bUhDpUu4Unl8RtX/ZBmpck+6o+Q2edKprcY4tCfVYKWIQ4NX8KTymMZ7kozUAcBEAABEAABEAABEAABENgVAX5c8ZbiCzOv0QZ675KN5l/LbODXwoS8NV80bFTBfz3JPv1zZP9bP7C3jFVikfc9LW1nbUmnWYEdNfDrSi78jjVVLlT57VRDTV1vgG+Tc3Kpl/alz0S18UksqQyUtk9qjWnlvK+0tPZbfJii7auUgXKz5EFsWmRkmhrdyJjEksrAEsAL+eu+tKXTXjGXLltPG08JuVLKQIkzhiv17ku79yUsI58LumW9wIghcR/iR3wJ5+rVfkmnaoWJBUsZmAOVq1eHeSSAEsuhMpDnLM9cl9MpLXdKGZiDm6tXZ2DvOXDkMqYEI3ep5urVAKVTtcLEgqUMzIHK1avD7A0wdyl663lKyBWJZegc2PsSlhHOBd2yvpSBObi5erVfYkCtMLGgxDI0A6XTibmoXStloFwJPHWEJVcfyhSPjwRQYhmagS3mwHhUiyM2oPGniT5ycHP1CRPpqhqAkv5py3PViq/xYOfq1d7LCKgVdiqYA5WrV4dZk4GlTvj1EG+y3mPZtWPJjjW5nK2Sfg5Urp77UJVeAJ+m3h+kjR0UJ9eOtXIcWMpWSZ/bfkfbq6wcFLkCUzeeQCx/2AvgT/JdTtUi0CV7zc71AphzZC+Xds7/Rf1ogHu5tBegUAECIAACIAACIAACIAACIAACIAACIAACIAACIAACIAACIHBKAg9R1PL57Ux7/kG0XZTXycuZwIW+7ALgr68AZ/oNLoE4FKB8Mm/tVPTcn+hbO5xVXkBY/av+RN/a4azyAFg5MgC4EUABv5c5kL/OeqlklVQXEMnGQqVmDuTvdMidcW1f6KpJE/+pXZfSE+A3lR7/QSk3pZj3r7M0Gfhziljkpgy+hVPeDBS9vcyBLVglbQiIZGOhUjKL57ZTl7MDrL47nx1g9d3ZC1D0SnOgZRmztsyR9ummCwFhdUwzB2qXMdq+p1zuYBmjHb6MXM8MzHR5rGovQNErzYHHIpWJRkBkmrPVmjkwq3ykBgCsHM2eALGMKQyOgC/NgVjGFABq5kC8jakEWFA/TpNcitaINBlotblLeS9A0SvNgbsEYnVaQFj1kIFXYj0BYhlTSEtNBmIZUwAomVuaA7GMKQDUZGBB/ThNkknWiADwSgwArakTyXsBil5pDoy6OuapgLBGh0v4SgwArakTydd+qHSP7PFlzJt89Bgec12pXWRlL/KxLU07dTW+eAG+SK5+i7Y3x7s8V49egM9TGO/Q9gxtPB/yVMD73PGI9j9R/5+jbWjxAmQnv3/dhjo8W2fem8hscWzmDwBWogfASoA1c2Cp689QIy9FuMiSRHPs0Qnt5vRZpkvpAfA75OnHu3g7odEeAF+mOL9OmzzuyfKGw1879uiEdmN9Oeff23yJBVuXHgDfJSd/0NrRWe3hJlI5MgBYCbDHJVxy6XB355EAD3l3lrtUKWtatX2KDM16d36vVZCwAwIgAAIgAAIgAAIgAAIgAAIgAAIgAAIgAAIgAAIgAAIgAAIgAAIgAAIgAAIgAAIgAAIgAAIgAAIgAAIgAAIgAAK7IzDyL8sFziN0wN/Q/hptD9Mm30CMvx0Yn5PorazmOKXPevyfLnCRfnPHKf01ndBWjf7fyNBrtL1A25/ZKEobAhcyI4OIvY7Fj9qgn9PK6BmQf4Yz/AnOe3T+W9rYD/FFjuNzEknK5eq31g/9svjCXxj7BStfywe0H/klMul3yH50YDIQEhzfDuWWKHVn38djIrfyQ3IZ/QXhOAEPDdeZMadihAR0ZklHNSRgR7hxwuP2u4R9KkbxemOJo23Nqa5uJ7oaRp+lPr9y7fdntH/L6cMwtfhq691xDdzQt6fopOUvG7AttjlD8TJivWdpe/C6fWOGYNZ82GsC/pACe3QtOEM722KbMxRvAsa+7+IBb/QtOE547xrwsZj2gc69jFol7lCUcbC9O98lpN5QIvteRl69qPuxp0jAsbw1ve0ykTSBpWRG34JPBTcFXFHnZeTR2/ypefQMGPfnXQMqxnG3Il5G1gRk+c2fmuNge4+aFVLOn9avYVr/ZU7Na51WjHLscvWbPDXvNQFbv4bJDYq3vua1jjcBrXpWeS+Lot5e14BHfg0zRWIUs6Zh4+gZMO4Pa8DlYHoZWRPXKr/0tEFNHGwDk0UTUwRd9HD7Ri8jq55VvgsZJGAXrFVGp0iMqggMykhAA6xBot4EtOpZ5buEPzoB4/68a8Ajv4bxMrImlFX+EAnYKmi8humSDuON4jXMeOZrPXovUqueVX7Nb1d7PN27jBiUpgja4O8WoqdiNDoB4/68a8AtEmNUn15G1sS1yneJPw62SyeB0SmCDvyZ8dDLyKpnle/CCgnYBWuV0SkSoyoCg/JeE/DIr2G8CWjVs8ob0kovOjoB4/68a8Ajv4bxMrImlFVen1UGSbyGMcAaJDpFYgyK9Sa+2nr3eyq4TpheRlY9q7wznLIaErDMZ4vWKRJjVOCjEzDuz7sGHMVni368jKyJa5XvwiIOtksngdEpgg78mfHQy8iqZ5XvwgoJ2AVrldEpEqMqAoMyEtAAa5CoNwGtelb5LuGPTsC4P6wBl8PqZWRNKKv80tMGNaPfA/6RfOafaZCyyXdRpfOd7P+6Ez9dbsZXm8uIQelxkv2lQf7som8RgK8qIVhnNKu80g2b2OgZ8C/k3pM2FyF9ZAKjZ8Ajs9w6NuuMZpXvEh8SsAvWTYxaE8oq3yUoJGAXrDCqJYAE1JKaX846o1nluxAY/RDiDeKLpPhl2mJoXntn0Ht/JciY5SavxPYyA34BybeSTneb+edeX71bNefZXmbAl+bEt2uvMAPuevjgfBMCe7kFNwkWRu4QwAx4BwdORhOYIgH3sga0Dg6emq3Ebm7WnprtFhUaR70F46lZMfiByG6emgOfcQgCIAACIAACIAACIAACIAACIAACIAACIAACIAACIAACIAACIAACIAACIAACIAACIAACIAACIPAhgf8CpKQ0Yk3EtuAAAAAASUVORK5CYII=;labelPosition=right;align=left;labelBackgroundColor=none;fontColor=#999999;strokeColor=#666666;" parent="1" vertex="1">
                    <mxGeometry x="150" y="340" width="40" height="40" as="geometry"/>
                </mxCell>
                <mxCell id="KOSUviGnnStbs8bRk7O3-6" value="project_1.yml" style="shape=image;verticalLabelPosition=middle;verticalAlign=middle;imageAspect=0;aspect=fixed;image=data:image/png,iVBORw0KGgoAAAANSUhEUgAAAKAAAACgCAYAAAH8yFe7AAAABGdBTUEAALGPC/xhBQAAADhlWElmTU0AKgAAAAgAAYdpAAQAAAABAAAAGgAAAAAAAqACAAQAAAABAAAAoKADAAQAAAABAAAAoAAAAACEJDuzAAALh0lEQVR4Ae2dP8w+RRHHXwVMjCYQosQCOkNhgj/pLO0MCWphQSG1CYkUVnb6dJY0FGiEzsTQGQtLQkVhgf9iIx2GwmDQaExUUGf0mZd993b3Zmb/3N7dd5P73d3uzOzMZ+f29u55n99zc4NCBP6j2D7dmtQ/cgbvzzVcvZTmj8jBdf+v6Pz2tGQwNnKrRAdZgx8NpaLjFEsRCQ1epJL3Qz0MO46PQw/vtJVCviMYnezYYGpQfkXhPUDbxwr7+yIEt6cpg/duWx0H3kHJdpXyMBS+hCc4BoE0gd9TdWoejOvS2olaVlwrfElmS+lKEa9iZb7OuVz+92/0T+lKyd1TxGBk6v+nJYOp8LkTt0GXhyWGyZDWPDyhwXiUP0GMfkNb6X7Co5wbsMXK4e8k/ARt85Ss61cXLwpXNTIKMxABgb0SSN0DPLHw6vR9j6Jntvb0w9Nd9qmhZHArBy8lp8K2rRwMfSg6O4ODobOL4/j2uRBIVGgvnPA+5c5Bj4Nhxwn/k1VDHQTBcAw0Q/x5Uvg3bR9ct/A4VxfL8JLQNQ+uOejJN/JlUd6kmicXtYqKNQdjE5e44gznpwz6DAOLGEEABEBgDgJriwHt2k8TzVpfGhsLmVYOuu2MemhaRK6tOJyDPFTx9raWxlWOc/G7Wh3rgrVForMNdU5uMcTcJz+zqMoWDoYE+fh7JU+tDnK+xTmYOn+q0GnsYJGmNQcfK3SsbYodLOajlaDWiZJcmIPhcVLH6mBqOFN1panHRNA6xGy8tpgctBKsdY71p3cwzLvwOBm8lWCPaaZ4FVtz8BTTzLFyUDPE/BEyv6iMX0pazsMLwERwzcHXyfKPabuPNr6geC+b5fwV0pPS1MEvidWGe5OD1mmmhZ/cp6xgwuOk7bUhDpUu4Unl8RtX/ZBmpck+6o+Q2edKprcY4tCfVYKWIQ4NX8KTymMZ7kozUAcBEAABEAABEAABEAABENgVAX5c8ZbiCzOv0QZ675KN5l/LbODXwoS8NV80bFTBfz3JPv1zZP9bP7C3jFVikfc9LW1nbUmnWYEdNfDrSi78jjVVLlT57VRDTV1vgG+Tc3Kpl/alz0S18UksqQyUtk9qjWnlvK+0tPZbfJii7auUgXKz5EFsWmRkmhrdyJjEksrAEsAL+eu+tKXTXjGXLltPG08JuVLKQIkzhiv17ku79yUsI58LumW9wIghcR/iR3wJ5+rVfkmnaoWJBUsZmAOVq1eHeSSAEsuhMpDnLM9cl9MpLXdKGZiDm6tXZ2DvOXDkMqYEI3ep5urVAKVTtcLEgqUMzIHK1avD7A0wdyl663lKyBWJZegc2PsSlhHOBd2yvpSBObi5erVfYkCtMLGgxDI0A6XTibmoXStloFwJPHWEJVcfyhSPjwRQYhmagS3mwHhUiyM2oPGniT5ycHP1CRPpqhqAkv5py3PViq/xYOfq1d7LCKgVdiqYA5WrV4dZk4GlTvj1EG+y3mPZtWPJjjW5nK2Sfg5Urp77UJVeAJ+m3h+kjR0UJ9eOtXIcWMpWSZ/bfkfbq6wcFLkCUzeeQCx/2AvgT/JdTtUi0CV7zc71AphzZC+Xds7/Rf1ogHu5tBegUAECIAACIAACIAACIAACIAACIAACIAACIAACIAACIAACIHBKAg9R1PL57Ux7/kG0XZTXycuZwIW+7ALgr68AZ/oNLoE4FKB8Mm/tVPTcn+hbO5xVXkBY/av+RN/a4azyAFg5MgC4EUABv5c5kL/OeqlklVQXEMnGQqVmDuTvdMidcW1f6KpJE/+pXZfSE+A3lR7/QSk3pZj3r7M0Gfhziljkpgy+hVPeDBS9vcyBLVglbQiIZGOhUjKL57ZTl7MDrL47nx1g9d3ZC1D0SnOgZRmztsyR9ummCwFhdUwzB2qXMdq+p1zuYBmjHb6MXM8MzHR5rGovQNErzYHHIpWJRkBkmrPVmjkwq3ykBgCsHM2eALGMKQyOgC/NgVjGFABq5kC8jakEWFA/TpNcitaINBlotblLeS9A0SvNgbsEYnVaQFj1kIFXYj0BYhlTSEtNBmIZUwAomVuaA7GMKQDUZGBB/ThNkknWiADwSgwArakTyXsBil5pDoy6OuapgLBGh0v4SgwArakTydd+qHSP7PFlzJt89Bgec12pXWRlL/KxLU07dTW+eAG+SK5+i7Y3x7s8V49egM9TGO/Q9gxtPB/yVMD73PGI9j9R/5+jbWjxAmQnv3/dhjo8W2fem8hscWzmDwBWogfASoA1c2Cp689QIy9FuMiSRHPs0Qnt5vRZpkvpAfA75OnHu3g7odEeAF+mOL9OmzzuyfKGw1879uiEdmN9Oeff23yJBVuXHgDfJSd/0NrRWe3hJlI5MgBYCbDHJVxy6XB355EAD3l3lrtUKWtatX2KDM16d36vVZCwAwIgAAIgAAIgAAIgAAIgAAIgAAIgAAIgAAIgAAIgAAIgAAIgAAIgAAIgAAIgAAIgAAIgAAIgAAIgAAIgAAIgAAK7IzDyL8sFziN0wN/Q/hptD9Mm30CMvx0Yn5PorazmOKXPevyfLnCRfnPHKf01ndBWjf7fyNBrtL1A25/ZKEobAhcyI4OIvY7Fj9qgn9PK6BmQf4Yz/AnOe3T+W9rYD/FFjuNzEknK5eq31g/9svjCXxj7BStfywe0H/klMul3yH50YDIQEhzfDuWWKHVn38djIrfyQ3IZ/QXhOAEPDdeZMadihAR0ZklHNSRgR7hxwuP2u4R9KkbxemOJo23Nqa5uJ7oaRp+lPr9y7fdntH/L6cMwtfhq691xDdzQt6fopOUvG7AttjlD8TJivWdpe/C6fWOGYNZ82GsC/pACe3QtOEM722KbMxRvAsa+7+IBb/QtOE547xrwsZj2gc69jFol7lCUcbC9O98lpN5QIvteRl69qPuxp0jAsbw1ve0ykTSBpWRG34JPBTcFXFHnZeTR2/ypefQMGPfnXQMqxnG3Il5G1gRk+c2fmuNge4+aFVLOn9avYVr/ZU7Na51WjHLscvWbPDXvNQFbv4bJDYq3vua1jjcBrXpWeS+Lot5e14BHfg0zRWIUs6Zh4+gZMO4Pa8DlYHoZWRPXKr/0tEFNHGwDk0UTUwRd9HD7Ri8jq55VvgsZJGAXrFVGp0iMqggMykhAA6xBot4EtOpZ5buEPzoB4/68a8Ajv4bxMrImlFX+EAnYKmi8humSDuON4jXMeOZrPXovUqueVX7Nb1d7PN27jBiUpgja4O8WoqdiNDoB4/68a8AtEmNUn15G1sS1yneJPw62SyeB0SmCDvyZ8dDLyKpnle/CCgnYBWuV0SkSoyoCg/JeE/DIr2G8CWjVs8ob0kovOjoB4/68a8Ajv4bxMrImlFVen1UGSbyGMcAaJDpFYgyK9Sa+2nr3eyq4TpheRlY9q7wznLIaErDMZ4vWKRJjVOCjEzDuz7sGHMVni368jKyJa5XvwiIOtksngdEpgg78mfHQy8iqZ5XvwgoJ2AVrldEpEqMqAoMyEtAAa5CoNwGtelb5LuGPTsC4P6wBl8PqZWRNKKv80tMGNaPfA/6RfOafaZCyyXdRpfOd7P+6Ez9dbsZXm8uIQelxkv2lQf7som8RgK8qIVhnNKu80g2b2OgZ8C/k3pM2FyF9ZAKjZ8Ajs9w6NuuMZpXvEh8SsAvWTYxaE8oq3yUoJGAXrDCqJYAE1JKaX846o1nluxAY/RDiDeKLpPhl2mJoXntn0Ht/JciY5SavxPYyA34BybeSTneb+edeX71bNefZXmbAl+bEt2uvMAPuevjgfBMCe7kFNwkWRu4QwAx4BwdORhOYIgH3sga0Dg6emq3Ebm7WnprtFhUaR70F46lZMfiByG6emgOfcQgCIAACIAACIAACIAACIAACIAACIAACIAACIAACIAACIAACIAACIAACIAACIAACIAACIAACIPAhgf8CpKQ0Yk3EtuAAAAAASUVORK5CYII=;labelPosition=right;align=left;labelBackgroundColor=none;fontColor=#999999;strokeColor=#666666;" parent="1" vertex="1">
                    <mxGeometry x="150" y="410" width="40" height="40" as="geometry"/>
                </mxCell>
                <mxCell id="KOSUviGnnStbs8bRk7O3-18" value="" style="endArrow=none;html=1;edgeStyle=orthogonalEdgeStyle;rounded=1;labelBackgroundColor=none;fontColor=#999999;strokeColor=#808080;" parent="1" edge="1">
                    <mxGeometry width="50" height="50" relative="1" as="geometry">
                        <mxPoint x="120" y="400" as="sourcePoint"/>
                        <mxPoint x="120" y="240" as="targetPoint"/>
                    </mxGeometry>
                </mxCell>
                <mxCell id="KOSUviGnnStbs8bRk7O3-19" value="ISSUE_TEMPLATE" style="text;html=1;strokeColor=none;fillColor=none;align=left;verticalAlign=middle;whiteSpace=wrap;rounded=0;labelBackgroundColor=none;fontColor=#999999;" parent="1" vertex="1">
                    <mxGeometry x="140" y="320" width="160" height="20" as="geometry"/>
                </mxCell>
                <mxCell id="KOSUviGnnStbs8bRk7O3-20" value="PROJECT_TEMPLATE" style="text;html=1;strokeColor=none;fillColor=none;align=left;verticalAlign=middle;whiteSpace=wrap;rounded=0;labelBackgroundColor=none;fontColor=#999999;" parent="1" vertex="1">
                    <mxGeometry x="140" y="390" width="190" height="20" as="geometry"/>
                </mxCell>
                <mxCell id="KOSUviGnnStbs8bRk7O3-21" value="&lt;meta charset=&quot;utf-8&quot; style=&quot;&quot;&gt;&lt;span style=&quot;font-family: Helvetica; font-size: 12px; font-style: normal; font-variant-ligatures: normal; font-variant-caps: normal; font-weight: 400; letter-spacing: normal; orphans: 2; text-align: left; text-indent: 0px; text-transform: none; widows: 2; word-spacing: 0px; -webkit-text-stroke-width: 0px; text-decoration-style: initial; text-decoration-color: initial; float: none; display: inline !important;&quot;&gt;.github/&lt;/span&gt;" style="text;whiteSpace=wrap;html=1;labelBackgroundColor=none;fontColor=#999999;" parent="1" vertex="1">
                    <mxGeometry x="100" y="210" width="60" height="30" as="geometry"/>
                </mxCell>
                <mxCell id="KOSUviGnnStbs8bRk7O3-22" value="" style="endArrow=none;html=1;exitX=0;exitY=0.5;exitDx=0;exitDy=0;edgeStyle=orthogonalEdgeStyle;rounded=1;labelBackgroundColor=none;fontColor=#999999;strokeColor=#808080;" parent="1" source="KOSUviGnnStbs8bRk7O3-19" edge="1">
                    <mxGeometry width="50" height="50" relative="1" as="geometry">
                        <mxPoint x="130" y="450" as="sourcePoint"/>
                        <mxPoint x="120" y="330" as="targetPoint"/>
                    </mxGeometry>
                </mxCell>
                <mxCell id="KOSUviGnnStbs8bRk7O3-23" value="" style="endArrow=none;html=1;entryX=0;entryY=0.5;entryDx=0;entryDy=0;edgeStyle=orthogonalEdgeStyle;rounded=1;labelBackgroundColor=none;fontColor=#999999;strokeColor=#808080;" parent="1" target="KOSUviGnnStbs8bRk7O3-20" edge="1">
                    <mxGeometry width="50" height="50" relative="1" as="geometry">
                        <mxPoint x="120" y="400" as="sourcePoint"/>
                        <mxPoint x="140" y="300" as="targetPoint"/>
                    </mxGeometry>
                </mxCell>
                <mxCell id="KOSUviGnnStbs8bRk7O3-26" value="project_2.yml" style="shape=image;verticalLabelPosition=middle;verticalAlign=middle;imageAspect=0;aspect=fixed;image=data:image/png,iVBORw0KGgoAAAANSUhEUgAAAKAAAACgCAYAAAH8yFe7AAAABGdBTUEAALGPC/xhBQAAADhlWElmTU0AKgAAAAgAAYdpAAQAAAABAAAAGgAAAAAAAqACAAQAAAABAAAAoKADAAQAAAABAAAAoAAAAACEJDuzAAALh0lEQVR4Ae2dP8w+RRHHXwVMjCYQosQCOkNhgj/pLO0MCWphQSG1CYkUVnb6dJY0FGiEzsTQGQtLQkVhgf9iIx2GwmDQaExUUGf0mZd993b3Zmb/3N7dd5P73d3uzOzMZ+f29u55n99zc4NCBP6j2D7dmtQ/cgbvzzVcvZTmj8jBdf+v6Pz2tGQwNnKrRAdZgx8NpaLjFEsRCQ1epJL3Qz0MO46PQw/vtJVCviMYnezYYGpQfkXhPUDbxwr7+yIEt6cpg/duWx0H3kHJdpXyMBS+hCc4BoE0gd9TdWoejOvS2olaVlwrfElmS+lKEa9iZb7OuVz+92/0T+lKyd1TxGBk6v+nJYOp8LkTt0GXhyWGyZDWPDyhwXiUP0GMfkNb6X7Co5wbsMXK4e8k/ARt85Ss61cXLwpXNTIKMxABgb0SSN0DPLHw6vR9j6Jntvb0w9Nd9qmhZHArBy8lp8K2rRwMfSg6O4ODobOL4/j2uRBIVGgvnPA+5c5Bj4Nhxwn/k1VDHQTBcAw0Q/x5Uvg3bR9ct/A4VxfL8JLQNQ+uOejJN/JlUd6kmicXtYqKNQdjE5e44gznpwz6DAOLGEEABEBgDgJriwHt2k8TzVpfGhsLmVYOuu2MemhaRK6tOJyDPFTx9raWxlWOc/G7Wh3rgrVForMNdU5uMcTcJz+zqMoWDoYE+fh7JU+tDnK+xTmYOn+q0GnsYJGmNQcfK3SsbYodLOajlaDWiZJcmIPhcVLH6mBqOFN1panHRNA6xGy8tpgctBKsdY71p3cwzLvwOBm8lWCPaaZ4FVtz8BTTzLFyUDPE/BEyv6iMX0pazsMLwERwzcHXyfKPabuPNr6geC+b5fwV0pPS1MEvidWGe5OD1mmmhZ/cp6xgwuOk7bUhDpUu4Unl8RtX/ZBmpck+6o+Q2edKprcY4tCfVYKWIQ4NX8KTymMZ7kozUAcBEAABEAABEAABEAABENgVAX5c8ZbiCzOv0QZ675KN5l/LbODXwoS8NV80bFTBfz3JPv1zZP9bP7C3jFVikfc9LW1nbUmnWYEdNfDrSi78jjVVLlT57VRDTV1vgG+Tc3Kpl/alz0S18UksqQyUtk9qjWnlvK+0tPZbfJii7auUgXKz5EFsWmRkmhrdyJjEksrAEsAL+eu+tKXTXjGXLltPG08JuVLKQIkzhiv17ku79yUsI58LumW9wIghcR/iR3wJ5+rVfkmnaoWJBUsZmAOVq1eHeSSAEsuhMpDnLM9cl9MpLXdKGZiDm6tXZ2DvOXDkMqYEI3ep5urVAKVTtcLEgqUMzIHK1avD7A0wdyl663lKyBWJZegc2PsSlhHOBd2yvpSBObi5erVfYkCtMLGgxDI0A6XTibmoXStloFwJPHWEJVcfyhSPjwRQYhmagS3mwHhUiyM2oPGniT5ycHP1CRPpqhqAkv5py3PViq/xYOfq1d7LCKgVdiqYA5WrV4dZk4GlTvj1EG+y3mPZtWPJjjW5nK2Sfg5Urp77UJVeAJ+m3h+kjR0UJ9eOtXIcWMpWSZ/bfkfbq6wcFLkCUzeeQCx/2AvgT/JdTtUi0CV7zc71AphzZC+Xds7/Rf1ogHu5tBegUAECIAACIAACIAACIAACIAACIAACIAACIAACIAACIAACIHBKAg9R1PL57Ux7/kG0XZTXycuZwIW+7ALgr68AZ/oNLoE4FKB8Mm/tVPTcn+hbO5xVXkBY/av+RN/a4azyAFg5MgC4EUABv5c5kL/OeqlklVQXEMnGQqVmDuTvdMidcW1f6KpJE/+pXZfSE+A3lR7/QSk3pZj3r7M0Gfhziljkpgy+hVPeDBS9vcyBLVglbQiIZGOhUjKL57ZTl7MDrL47nx1g9d3ZC1D0SnOgZRmztsyR9ummCwFhdUwzB2qXMdq+p1zuYBmjHb6MXM8MzHR5rGovQNErzYHHIpWJRkBkmrPVmjkwq3ykBgCsHM2eALGMKQyOgC/NgVjGFABq5kC8jakEWFA/TpNcitaINBlotblLeS9A0SvNgbsEYnVaQFj1kIFXYj0BYhlTSEtNBmIZUwAomVuaA7GMKQDUZGBB/ThNkknWiADwSgwArakTyXsBil5pDoy6OuapgLBGh0v4SgwArakTydd+qHSP7PFlzJt89Bgec12pXWRlL/KxLU07dTW+eAG+SK5+i7Y3x7s8V49egM9TGO/Q9gxtPB/yVMD73PGI9j9R/5+jbWjxAmQnv3/dhjo8W2fem8hscWzmDwBWogfASoA1c2Cp689QIy9FuMiSRHPs0Qnt5vRZpkvpAfA75OnHu3g7odEeAF+mOL9OmzzuyfKGw1879uiEdmN9Oeff23yJBVuXHgDfJSd/0NrRWe3hJlI5MgBYCbDHJVxy6XB355EAD3l3lrtUKWtatX2KDM16d36vVZCwAwIgAAIgAAIgAAIgAAIgAAIgAAIgAAIgAAIgAAIgAAIgAAIgAAIgAAIgAAIgAAIgAAIgAAIgAAIgAAIgAAIgAAK7IzDyL8sFziN0wN/Q/hptD9Mm30CMvx0Yn5PorazmOKXPevyfLnCRfnPHKf01ndBWjf7fyNBrtL1A25/ZKEobAhcyI4OIvY7Fj9qgn9PK6BmQf4Yz/AnOe3T+W9rYD/FFjuNzEknK5eq31g/9svjCXxj7BStfywe0H/klMul3yH50YDIQEhzfDuWWKHVn38djIrfyQ3IZ/QXhOAEPDdeZMadihAR0ZklHNSRgR7hxwuP2u4R9KkbxemOJo23Nqa5uJ7oaRp+lPr9y7fdntH/L6cMwtfhq691xDdzQt6fopOUvG7AttjlD8TJivWdpe/C6fWOGYNZ82GsC/pACe3QtOEM722KbMxRvAsa+7+IBb/QtOE547xrwsZj2gc69jFol7lCUcbC9O98lpN5QIvteRl69qPuxp0jAsbw1ve0ykTSBpWRG34JPBTcFXFHnZeTR2/ypefQMGPfnXQMqxnG3Il5G1gRk+c2fmuNge4+aFVLOn9avYVr/ZU7Na51WjHLscvWbPDXvNQFbv4bJDYq3vua1jjcBrXpWeS+Lot5e14BHfg0zRWIUs6Zh4+gZMO4Pa8DlYHoZWRPXKr/0tEFNHGwDk0UTUwRd9HD7Ri8jq55VvgsZJGAXrFVGp0iMqggMykhAA6xBot4EtOpZ5buEPzoB4/68a8Ajv4bxMrImlFX+EAnYKmi8humSDuON4jXMeOZrPXovUqueVX7Nb1d7PN27jBiUpgja4O8WoqdiNDoB4/68a8AtEmNUn15G1sS1yneJPw62SyeB0SmCDvyZ8dDLyKpnle/CCgnYBWuV0SkSoyoCg/JeE/DIr2G8CWjVs8ob0kovOjoB4/68a8Ajv4bxMrImlFVen1UGSbyGMcAaJDpFYgyK9Sa+2nr3eyq4TpheRlY9q7wznLIaErDMZ4vWKRJjVOCjEzDuz7sGHMVni368jKyJa5XvwiIOtksngdEpgg78mfHQy8iqZ5XvwgoJ2AVrldEpEqMqAoMyEtAAa5CoNwGtelb5LuGPTsC4P6wBl8PqZWRNKKv80tMGNaPfA/6RfOafaZCyyXdRpfOd7P+6Ez9dbsZXm8uIQelxkv2lQf7som8RgK8qIVhnNKu80g2b2OgZ8C/k3pM2FyF9ZAKjZ8Ajs9w6NuuMZpXvEh8SsAvWTYxaE8oq3yUoJGAXrDCqJYAE1JKaX846o1nluxAY/RDiDeKLpPhl2mJoXntn0Ht/JciY5SavxPYyA34BybeSTneb+edeX71bNefZXmbAl+bEt2uvMAPuevjgfBMCe7kFNwkWRu4QwAx4BwdORhOYIgH3sga0Dg6emq3Ebm7WnprtFhUaR70F46lZMfiByG6emgOfcQgCIAACIAACIAACIAACIAACIAACIAACIAACIAACIAACIAACIAACIAACIAACIAACIAACIAACIPAhgf8CpKQ0Yk3EtuAAAAAASUVORK5CYII=;labelPosition=right;align=left;labelBackgroundColor=none;fontColor=#999999;strokeColor=#666666;" parent="1" vertex="1">
                    <mxGeometry x="150" y="450" width="40" height="40" as="geometry"/>
                </mxCell>
                <mxCell id="KOSUviGnnStbs8bRk7O3-37" value="project_template_action.yml" style="shape=image;verticalLabelPosition=middle;verticalAlign=middle;imageAspect=0;aspect=fixed;image=data:image/png,iVBORw0KGgoAAAANSUhEUgAAAKAAAACgCAYAAAH8yFe7AAAABGdBTUEAALGPC/xhBQAAADhlWElmTU0AKgAAAAgAAYdpAAQAAAABAAAAGgAAAAAAAqACAAQAAAABAAAAoKADAAQAAAABAAAAoAAAAACEJDuzAAALh0lEQVR4Ae2dP8w+RRHHXwVMjCYQosQCOkNhgj/pLO0MCWphQSG1CYkUVnb6dJY0FGiEzsTQGQtLQkVhgf9iIx2GwmDQaExUUGf0mZd993b3Zmb/3N7dd5P73d3uzOzMZ+f29u55n99zc4NCBP6j2D7dmtQ/cgbvzzVcvZTmj8jBdf+v6Pz2tGQwNnKrRAdZgx8NpaLjFEsRCQ1epJL3Qz0MO46PQw/vtJVCviMYnezYYGpQfkXhPUDbxwr7+yIEt6cpg/duWx0H3kHJdpXyMBS+hCc4BoE0gd9TdWoejOvS2olaVlwrfElmS+lKEa9iZb7OuVz+92/0T+lKyd1TxGBk6v+nJYOp8LkTt0GXhyWGyZDWPDyhwXiUP0GMfkNb6X7Co5wbsMXK4e8k/ARt85Ss61cXLwpXNTIKMxABgb0SSN0DPLHw6vR9j6Jntvb0w9Nd9qmhZHArBy8lp8K2rRwMfSg6O4ODobOL4/j2uRBIVGgvnPA+5c5Bj4Nhxwn/k1VDHQTBcAw0Q/x5Uvg3bR9ct/A4VxfL8JLQNQ+uOejJN/JlUd6kmicXtYqKNQdjE5e44gznpwz6DAOLGEEABEBgDgJriwHt2k8TzVpfGhsLmVYOuu2MemhaRK6tOJyDPFTx9raWxlWOc/G7Wh3rgrVForMNdU5uMcTcJz+zqMoWDoYE+fh7JU+tDnK+xTmYOn+q0GnsYJGmNQcfK3SsbYodLOajlaDWiZJcmIPhcVLH6mBqOFN1panHRNA6xGy8tpgctBKsdY71p3cwzLvwOBm8lWCPaaZ4FVtz8BTTzLFyUDPE/BEyv6iMX0pazsMLwERwzcHXyfKPabuPNr6geC+b5fwV0pPS1MEvidWGe5OD1mmmhZ/cp6xgwuOk7bUhDpUu4Unl8RtX/ZBmpck+6o+Q2edKprcY4tCfVYKWIQ4NX8KTymMZ7kozUAcBEAABEAABEAABEAABENgVAX5c8ZbiCzOv0QZ675KN5l/LbODXwoS8NV80bFTBfz3JPv1zZP9bP7C3jFVikfc9LW1nbUmnWYEdNfDrSi78jjVVLlT57VRDTV1vgG+Tc3Kpl/alz0S18UksqQyUtk9qjWnlvK+0tPZbfJii7auUgXKz5EFsWmRkmhrdyJjEksrAEsAL+eu+tKXTXjGXLltPG08JuVLKQIkzhiv17ku79yUsI58LumW9wIghcR/iR3wJ5+rVfkmnaoWJBUsZmAOVq1eHeSSAEsuhMpDnLM9cl9MpLXdKGZiDm6tXZ2DvOXDkMqYEI3ep5urVAKVTtcLEgqUMzIHK1avD7A0wdyl663lKyBWJZegc2PsSlhHOBd2yvpSBObi5erVfYkCtMLGgxDI0A6XTibmoXStloFwJPHWEJVcfyhSPjwRQYhmagS3mwHhUiyM2oPGniT5ycHP1CRPpqhqAkv5py3PViq/xYOfq1d7LCKgVdiqYA5WrV4dZk4GlTvj1EG+y3mPZtWPJjjW5nK2Sfg5Urp77UJVeAJ+m3h+kjR0UJ9eOtXIcWMpWSZ/bfkfbq6wcFLkCUzeeQCx/2AvgT/JdTtUi0CV7zc71AphzZC+Xds7/Rf1ogHu5tBegUAECIAACIAACIAACIAACIAACIAACIAACIAACIAACIAACIHBKAg9R1PL57Ux7/kG0XZTXycuZwIW+7ALgr68AZ/oNLoE4FKB8Mm/tVPTcn+hbO5xVXkBY/av+RN/a4azyAFg5MgC4EUABv5c5kL/OeqlklVQXEMnGQqVmDuTvdMidcW1f6KpJE/+pXZfSE+A3lR7/QSk3pZj3r7M0Gfhziljkpgy+hVPeDBS9vcyBLVglbQiIZGOhUjKL57ZTl7MDrL47nx1g9d3ZC1D0SnOgZRmztsyR9ummCwFhdUwzB2qXMdq+p1zuYBmjHb6MXM8MzHR5rGovQNErzYHHIpWJRkBkmrPVmjkwq3ykBgCsHM2eALGMKQyOgC/NgVjGFABq5kC8jakEWFA/TpNcitaINBlotblLeS9A0SvNgbsEYnVaQFj1kIFXYj0BYhlTSEtNBmIZUwAomVuaA7GMKQDUZGBB/ThNkknWiADwSgwArakTyXsBil5pDoy6OuapgLBGh0v4SgwArakTydd+qHSP7PFlzJt89Bgec12pXWRlL/KxLU07dTW+eAG+SK5+i7Y3x7s8V49egM9TGO/Q9gxtPB/yVMD73PGI9j9R/5+jbWjxAmQnv3/dhjo8W2fem8hscWzmDwBWogfASoA1c2Cp689QIy9FuMiSRHPs0Qnt5vRZpkvpAfA75OnHu3g7odEeAF+mOL9OmzzuyfKGw1879uiEdmN9Oeff23yJBVuXHgDfJSd/0NrRWe3hJlI5MgBYCbDHJVxy6XB355EAD3l3lrtUKWtatX2KDM16d36vVZCwAwIgAAIgAAIgAAIgAAIgAAIgAAIgAAIgAAIgAAIgAAIgAAIgAAIgAAIgAAIgAAIgAAIgAAIgAAIgAAIgAAIgAAK7IzDyL8sFziN0wN/Q/hptD9Mm30CMvx0Yn5PorazmOKXPevyfLnCRfnPHKf01ndBWjf7fyNBrtL1A25/ZKEobAhcyI4OIvY7Fj9qgn9PK6BmQf4Yz/AnOe3T+W9rYD/FFjuNzEknK5eq31g/9svjCXxj7BStfywe0H/klMul3yH50YDIQEhzfDuWWKHVn38djIrfyQ3IZ/QXhOAEPDdeZMadihAR0ZklHNSRgR7hxwuP2u4R9KkbxemOJo23Nqa5uJ7oaRp+lPr9y7fdntH/L6cMwtfhq691xDdzQt6fopOUvG7AttjlD8TJivWdpe/C6fWOGYNZ82GsC/pACe3QtOEM722KbMxRvAsa+7+IBb/QtOE547xrwsZj2gc69jFol7lCUcbC9O98lpN5QIvteRl69qPuxp0jAsbw1ve0ykTSBpWRG34JPBTcFXFHnZeTR2/ypefQMGPfnXQMqxnG3Il5G1gRk+c2fmuNge4+aFVLOn9avYVr/ZU7Na51WjHLscvWbPDXvNQFbv4bJDYq3vua1jjcBrXpWeS+Lot5e14BHfg0zRWIUs6Zh4+gZMO4Pa8DlYHoZWRPXKr/0tEFNHGwDk0UTUwRd9HD7Ri8jq55VvgsZJGAXrFVGp0iMqggMykhAA6xBot4EtOpZ5buEPzoB4/68a8Ajv4bxMrImlFX+EAnYKmi8humSDuON4jXMeOZrPXovUqueVX7Nb1d7PN27jBiUpgja4O8WoqdiNDoB4/68a8AtEmNUn15G1sS1yneJPw62SyeB0SmCDvyZ8dDLyKpnle/CCgnYBWuV0SkSoyoCg/JeE/DIr2G8CWjVs8ob0kovOjoB4/68a8Ajv4bxMrImlFVen1UGSbyGMcAaJDpFYgyK9Sa+2nr3eyq4TpheRlY9q7wznLIaErDMZ4vWKRJjVOCjEzDuz7sGHMVni368jKyJa5XvwiIOtksngdEpgg78mfHQy8iqZ5XvwgoJ2AVrldEpEqMqAoMyEtAAa5CoNwGtelb5LuGPTsC4P6wBl8PqZWRNKKv80tMGNaPfA/6RfOafaZCyyXdRpfOd7P+6Ez9dbsZXm8uIQelxkv2lQf7som8RgK8qIVhnNKu80g2b2OgZ8C/k3pM2FyF9ZAKjZ8Ajs9w6NuuMZpXvEh8SsAvWTYxaE8oq3yUoJGAXrDCqJYAE1JKaX846o1nluxAY/RDiDeKLpPhl2mJoXntn0Ht/JciY5SavxPYyA34BybeSTneb+edeX71bNefZXmbAl+bEt2uvMAPuevjgfBMCe7kFNwkWRu4QwAx4BwdORhOYIgH3sga0Dg6emq3Ebm7WnprtFhUaR70F46lZMfiByG6emgOfcQgCIAACIAACIAACIAACIAACIAACIAACIAACIAACIAACIAACIAACIAACIAACIAACIAACIAACIPAhgf8CpKQ0Yk3EtuAAAAAASUVORK5CYII=;labelPosition=right;align=left;labelBackgroundColor=none;fontColor=#999999;strokeColor=#666666;" parent="1" vertex="1">
                    <mxGeometry x="150" y="270" width="40" height="40" as="geometry"/>
                </mxCell>
                <mxCell id="KOSUviGnnStbs8bRk7O3-38" value="workflow" style="text;html=1;strokeColor=none;fillColor=none;align=left;verticalAlign=middle;whiteSpace=wrap;rounded=0;labelBackgroundColor=none;fontColor=#999999;" parent="1" vertex="1">
                    <mxGeometry x="140" y="250" width="160" height="20" as="geometry"/>
                </mxCell>
                <mxCell id="KOSUviGnnStbs8bRk7O3-39" value="" style="endArrow=none;html=1;exitX=0;exitY=0.5;exitDx=0;exitDy=0;edgeStyle=orthogonalEdgeStyle;rounded=1;labelBackgroundColor=none;fontColor=#999999;strokeColor=#808080;" parent="1" source="KOSUviGnnStbs8bRk7O3-38" edge="1">
                    <mxGeometry width="50" height="50" relative="1" as="geometry">
                        <mxPoint x="130" y="380" as="sourcePoint"/>
                        <mxPoint x="120" y="260" as="targetPoint"/>
                    </mxGeometry>
                </mxCell>
                <mxCell id="KOSUviGnnStbs8bRk7O3-42" value="" style="rounded=1;whiteSpace=wrap;html=1;align=left;arcSize=3;fillColor=#4D4D4D;fontColor=#FFFFFF;labelBackgroundColor=none;strokeColor=#B3B3B3;" parent="1" vertex="1">
                    <mxGeometry x="560" y="160" width="280" height="360" as="geometry"/>
                </mxCell>
                <mxCell id="KOSUviGnnStbs8bRk7O3-43" value="Repository" style="shape=image;verticalLabelPosition=bottom;verticalAlign=top;imageAspect=0;aspect=fixed;image=data:image/png,iVBORw0KGgoAAAANSUhEUgAAAKAAAACgCAYAAAH8yFe7AAAABGdBTUEAALGPC/xhBQAAADhlWElmTU0AKgAAAAgAAYdpAAQAAAABAAAAGgAAAAAAAqACAAQAAAABAAAAoKADAAQAAAABAAAAoAAAAACEJDuzAAAL3ElEQVR4Ae2dW+xuxxjG61DUsXvXbqVKBAmaSKoEpQ6JXQnhQoXE4ULdlAuaRoIbrAtC4twLEi7YDTcSh5Y4VNI4pGk0ISq46cVusnU7lKpDNqrK8/z393aP+a/DzJqZNbP2et7k/WbWHN/5rfdbx2/mO+OMzckDBkb8fqQ/cCDPTe7cjbF4aMHL/EZCrLjPrzS2HdJgSJn7+4gqfH+tkcjp0eB/R0a4LytkyEO+uq8xJjy4N/VkYjeSZ1k3WWQq7JwCHLLpMSed0X2OPWbhQVS4a9eADZsNM93kZovEhO5OceO9bYTsFKt4xCIKt07AHNbn0PkJA9uh5faqTxW+tK+TKcc+u6/SWNpUg3ePVe7Lm2qwr85o2vobPDQ6vp7MqSHf2VNnNGlRxzZL7HziH62jHJvnDXNqjsKUnTCPepgbTYgN1cImjJIRItAmgc4xy407ycHRK1Hy2SGlpw6uIW18IaSQV+ZX2Havgr3sU5s5DLziVHP5Y6kGvhcmFT1Cphr4ERg4dMrMgjPVwHe1TvDjrRPkbryGH6UkdRfTrnfOMO5FqPPYkHpjd/Fj9buxzIC8H6PMWQHlgp7iTbUzdJgZSp9q7//yYw4RD0NNnqIo7Nx8j/G+diz9Klbw5HpsH/XSim3SEPohQ6rdEDIuEQEREAEREIHKBPrOoUMmdUMZM9J5Hrf3HTOq76/SOUlu3EmOiga3keOCNcqy2MKpBt4W22Fs+VQDnxrbYWz5VANjvmSxtu2VTzVwVqcxlVIN5FVzUYpz7+oMQlHj2EkqQTO0WJhq4IOKWbZrONXAe1s3UD6YuouL35ynGviz1n0w6FVCyiBSCab0HVQ39FvYBbUWVyhrm1kbwziC20s9F499i0P3DuwdllQD2XKfIWOGD1vTkxNj4EtR/xe7NmLuyA56/R7wtkc3+0Y/VOHNyDhnl/lZhPdAh64HLf25KHPJro4FJxD5vG2UDod25VB6tD0xu3iscdegXG2O9RecR8Oo5zk1LM1JUlQEREAEREAEREAEREAEREAEPAIxN5xe1d7N0OmSvZUXSuxy9pP73tCe4/lG2raFOccQ2hZnWhyGcgbf90MrTZWzAU+VU/4AgZoAPwmb7OHDQwbsaz65JsCrQYfHYCof4K1SagJcJTDf6NoA3waDLvKNWtN27rNwzNhfgsJ8/k7JfTl1stUFPmsC/OGawdm+qf0VNjtWG9YE+HJQs8sYAZxB4AbU4fvIp82o20yVmsdAQvhyMyRmGlLzKzzT5Laq1QTIKZZ2DDyzLSzh1tQEyEm0div373CT2ypZE+DSJOwXFI/L2XHuO4BuZxwfDrT6hOUm2JbteWCps/B1MJJrJrQk9kA1q02lvsKtwcsKzW2slAe6fYzFeRaeI7kPPXNs2KtTG6AZHgpkLnD2Y8fkrGf8UMNtoFPhM1HgtSOFfoK87zj5BiTUDr9857QVEv0DCn0mpOBayhCIQQmxObZ8SJtJZUqdRFKMuhWVDRTPnJIRAgbKDQmQQnhu+hFnm/kSEPgtlJC4WMmYcH7ecSgv0F8zVlB5IiACIiACIiACIiACIiACIiACIiACIiACIiACIiACIiACItBDIPR9bE/V3qQXIJW/fW5RirwTzrmYIv8V4Q0tktvZ9AiE50Kz/m4n50873rQz9GsIbaUtJnX8gHR7n3U++P6bc5kvzN19zhfrB3bGufBy2zu3vah/oo3pJCfAmH5Pm7ICmLgrawJ8HWznX6bYfxgmDqVO9ZwnkdgRfGVX4U8Ic14NxNqRVL6mBx7dWW7/PpQ0kFqVa3rgk2sNOme/NT0w5ziqtSWAiegFcMUA+Yd970u0v3r1micRLtpM4a9TD+3FVvhR8yvMn/ZSbj4ZrPOzpgdy5/F5pIFcJcGaHkhgq4bHAdQGSBtWLQKYuPtqA+Rj9lVLTYA8/v0d+r01E6wJ0LhxhudqpSZAzt+9Gnr+aunB8JoAOfH5U2uGR9trAlw7uz37BTBxNwrgigHeAdt5KTM1VzhxiGWr1/RAO/t+ouwQy7ZeE+ArMbTfQB9TdohlW6/5OIvLnzyh7PDKt17TA8uPboEeBDAR8lYA8gVWESlxDOTST30PCLoiI6jcaAkP7INXeZjlui/hgXxI8KFyJs9uuZtdc6RiCQ/kH61sRkoAtBfmm4BYAmAouGMoyHvhWA1tf5FyNQFesMgIC3dS4iQSa3LobCl6anOS0wPv3Y3uoc2NsqBBOT3wFtjJuXLvhn4O6i/2yl/k557w8ki0aYvLIjool+9ysntx6Ndn0DIvo/O2/U033wYTaoNf/klo/C3QGPkwCv8rpsJU2ZweyL466CXQi6F+27cjLafcjsZ+Dw3xwKModz30tBJ6lHlVyMBiy4e0mVwm50kk2Zg1NtAaQHflXlvNd41cF7HZ/UpyqhfP0pbmhvbWztIWMW4NnRiQIx44eiGFHmhl3HAvUx/74RCkL/wXGhce45IdAV7cEghfsE/N1uTXmGWPQyUiIAIiIAIiIAIiIAIiIAIiIAIiIAIiIAIiIAIiIAIiIAIiIAIiIAIiIAIiIAIiIAIiIAIiIAIiIAIiIAIiIAIiIAI5CYTO7svZZ2xb56DC86BPgXJxLX/iHZIkIPAP6O+gv4T+HPofaPPSsgO+EPQua55guwb+DaZxrjbDZqVVB3wViD3HofZPxLlC3q+h/uR3Fuv44UjnxLcQ5X48G8ovrP+XoZ9G2p+hTUprE1wN0rMssgs/hpDTDfuczyu6yU1OfKOT8e8NfwB15SJ3o7V4qw7ozza0NVRa49eiPT6rpq+ZW3XAFnesbCpAQA5YAKqaDCewRQfkOkp8RMHrJlNeO0kqENiiA74MnP1xH0Zaq08EKrjFcl36O2K5nuv19EF0zQfaXNPwo1Au6nMQyqOhZGECTd8hFWTxV7RN55NUJrDFI2Bl5OreJSAHdGkovjgBOeDiyNWhS2CLDvgoAOA7ZXsEwzcHb3ShKL4cgS06IO+Cn+Eg5mu/L0FD1j13qimag8AWHfAqgLsCysX2efT7KvRc6D1QycIEtvoY5ovgTJVUJrDFI2Bl5OreJSAHdGkovjgBOeDiyNWhS2CrDvgOQODrOD6KuQF6PlRSgcAWb0KuAWc6oAnnUdwB5T9W6k7YqCwUbvEI+B6w/anDl053OVTO50BZKrrFIyDnz7oz7pZirX56CGzxCNiDQUm1CMgBa5FXv3sE5IByhKoEtngNSOCHoPwnU4bfgH4XKqlAYIsO+AFw7hzWVyLOZ4IHoPc56YouQGCLp+Bvgau/esB1SJPzLeBwfhdbPALyGeCZPght1yGwxSNgHdLqtZeAHLAXy6oT/Qn2/nZTg5MDNrU7shjDlWRdeby70Vp8TdeAtJUrGjwcOvWtfmJroBewh3fxL4ZySWNXuGxvs7IWB+wiCb41svzpXNy/429qrGtxQIPG9Y7/AvXXcbGjI8sxv2noNLKAnECbnGjFO3yuALYKWYsDfhs0b1kF0fpGXlrfhHAL1nITIucL36erKrkWB8wN9RVo8BjUVkcoFbIP9iUZILCWU/CA+bOTeUpfQi5AJ+xr6q59CVua7GOrDujvjNwO4t8k+f1pe0dgq6dgOUAjBFp1wD96fJ7vbWuznwAXWLrYy7rT225qM/epJ9fgHo2GOHVy7q9W7kbda6F3QfvEP0Xm5jDVPr/4r4c+vc+4jGn85c83M7aXvanc4HMbeCEafDX0rBkN34g6PxqoN+UgA9WCk6faPw8tvT24tfiCt6HK16En4qsuW6N1ByxFY8pBUvst3X6qfc3Ub/UasBlAMqQsATngNF+uoMoJTMd3yjjTJCIwmwBPka76DfEa7YhXxi1vcZZhWV8s30I/X9sbJ2COYSFx8CX+rVBL88NrkUf1022bde2HAJZmIbIkInCKgDnGWMhHOUOnW75BYh7LjLVheSgmEYFTBHg9Z87B6ZgWd49ip0pPx/yjp/tvnFz6TSICIiACIiACIiACIiACIiACIiACIiACIiACIiACIiACIiACIiACIiACIiACIiACIiACIiACIiACJQn8D8TbvmgIoux5AAAAAElFTkSuQmCC;fontSize=18;fontColor=#FFFFFF;" parent="1" vertex="1">
                    <mxGeometry x="650" y="80" width="80" height="80" as="geometry"/>
                </mxCell>
                <mxCell id="KOSUviGnnStbs8bRk7O3-46" value="" style="endArrow=none;html=1;edgeStyle=orthogonalEdgeStyle;rounded=1;strokeColor=#FFFFFF;labelBackgroundColor=none;fontColor=#FFFFFF;" parent="1" edge="1">
                    <mxGeometry width="50" height="50" relative="1" as="geometry">
                        <mxPoint x="600" y="400" as="sourcePoint"/>
                        <mxPoint x="600" y="240" as="targetPoint"/>
                    </mxGeometry>
                </mxCell>
                <mxCell id="KOSUviGnnStbs8bRk7O3-47" value="ISSUE_TEMPLATE" style="text;html=1;strokeColor=none;fillColor=none;align=left;verticalAlign=middle;whiteSpace=wrap;rounded=0;labelBackgroundColor=none;fontColor=#FFFFFF;" parent="1" vertex="1">
                    <mxGeometry x="620" y="320" width="160" height="20" as="geometry"/>
                </mxCell>
                <mxCell id="KOSUviGnnStbs8bRk7O3-48" value="PROJECT_TEMPLATE" style="text;html=1;strokeColor=none;fillColor=none;align=left;verticalAlign=middle;whiteSpace=wrap;rounded=0;labelBackgroundColor=none;fontColor=#FFFFFF;" parent="1" vertex="1">
                    <mxGeometry x="620" y="390" width="190" height="20" as="geometry"/>
                </mxCell>
                <mxCell id="KOSUviGnnStbs8bRk7O3-49" value="&lt;meta charset=&quot;utf-8&quot; style=&quot;&quot;&gt;&lt;span style=&quot;font-family: Helvetica; font-size: 12px; font-style: normal; font-variant-ligatures: normal; font-variant-caps: normal; font-weight: 400; letter-spacing: normal; orphans: 2; text-align: left; text-indent: 0px; text-transform: none; widows: 2; word-spacing: 0px; -webkit-text-stroke-width: 0px; text-decoration-style: initial; text-decoration-color: initial; float: none; display: inline !important;&quot;&gt;.github/&lt;/span&gt;" style="text;whiteSpace=wrap;html=1;strokeColor=none;labelBackgroundColor=none;fontColor=#FFFFFF;" parent="1" vertex="1">
                    <mxGeometry x="580" y="210" width="60" height="30" as="geometry"/>
                </mxCell>
                <mxCell id="KOSUviGnnStbs8bRk7O3-50" value="" style="endArrow=none;html=1;exitX=0;exitY=0.5;exitDx=0;exitDy=0;edgeStyle=orthogonalEdgeStyle;rounded=1;strokeColor=#FFFFFF;labelBackgroundColor=none;fontColor=#FFFFFF;" parent="1" source="KOSUviGnnStbs8bRk7O3-47" edge="1">
                    <mxGeometry width="50" height="50" relative="1" as="geometry">
                        <mxPoint x="610" y="450" as="sourcePoint"/>
                        <mxPoint x="600" y="330" as="targetPoint"/>
                    </mxGeometry>
                </mxCell>
                <mxCell id="KOSUviGnnStbs8bRk7O3-51" value="" style="endArrow=none;html=1;entryX=0;entryY=0.5;entryDx=0;entryDy=0;edgeStyle=orthogonalEdgeStyle;rounded=1;strokeColor=#FFFFFF;labelBackgroundColor=none;fontColor=#FFFFFF;" parent="1" target="KOSUviGnnStbs8bRk7O3-48" edge="1">
                    <mxGeometry width="50" height="50" relative="1" as="geometry">
                        <mxPoint x="600" y="400" as="sourcePoint"/>
                        <mxPoint x="620" y="300" as="targetPoint"/>
                    </mxGeometry>
                </mxCell>
                <mxCell id="KOSUviGnnStbs8bRk7O3-54" value="workflow" style="text;html=1;strokeColor=none;fillColor=none;align=left;verticalAlign=middle;whiteSpace=wrap;rounded=0;labelBackgroundColor=none;fontColor=#FFFFFF;" parent="1" vertex="1">
                    <mxGeometry x="620" y="250" width="160" height="20" as="geometry"/>
                </mxCell>
                <mxCell id="KOSUviGnnStbs8bRk7O3-55" value="" style="endArrow=none;html=1;exitX=0;exitY=0.5;exitDx=0;exitDy=0;edgeStyle=orthogonalEdgeStyle;rounded=1;strokeColor=#FFFFFF;labelBackgroundColor=none;fontColor=#FFFFFF;" parent="1" source="KOSUviGnnStbs8bRk7O3-54" edge="1">
                    <mxGeometry width="50" height="50" relative="1" as="geometry">
                        <mxPoint x="610" y="380" as="sourcePoint"/>
                        <mxPoint x="600" y="260" as="targetPoint"/>
                    </mxGeometry>
                </mxCell>
                <mxCell id="KOSUviGnnStbs8bRk7O3-63" value="project_template_action.yaml" style="shape=image;verticalLabelPosition=middle;verticalAlign=middle;imageAspect=0;aspect=fixed;image=data:image/png,iVBORw0KGgoAAAANSUhEUgAAAKAAAACgCAYAAAH8yFe7AAAABGdBTUEAALGPC/xhBQAAADhlWElmTU0AKgAAAAgAAYdpAAQAAAABAAAAGgAAAAAAAqACAAQAAAABAAAAoKADAAQAAAABAAAAoAAAAACEJDuzAAAR8klEQVR4Ae1dTYwdRxHe99Z2snEiL5sQISuW8mKbA1ISIl84ckMgfiQ4gAQHDignOOTECcVw4ciFQ0AKNySUG+LAEXHiQKyAQnzBsRM54mBi45UTJ/55u3zVOzXb3TPd092vp9/MbI30dnqqq6urv66q/pmf3dg4csfMbvF77723b9Ps6wcPHjx9/vz5/9r05Otr167dcxU+5srQNX322WeNlsxmsweuck6BthBLQLxAXUMWxpXs7+/XAtH8i4vF4iLzJGnoa/KcJcecdQ3tckkCs2sIrWoMs2joa3KjU9Br/0STjqPmEyh4HOkTSB9H+gTT0dubtmZ83RAIE3iRM1POSZ3iq6ihoc5MRqtfS1oQOEDAiMSIgf8G+VwXOBwXu/g22oKqXeidd94hV3QeTk8h4W0VPPnkk+TnGy6jd3qKq1mffPKJEuhS0SmwTTuq5OHDh2kCXRo+8sgjXoFODF1N6tIwWuBxHK7KiB4tcLlc5hW4t7fnFWj08okTJ06id9/Wxw/HuGJ4mA6BIfD06dN3kfm8zrD2tFN10szlXrrW+kRJp0taEDgiCLSNASlNR3TZhKyHKWWjg2tKJVCO4qdzku+TWUTBe/fu0Xy/VjAkgLHSRRQ8efIkLUxqBblyOncpW0RB7CUYCOoKdqWN0a6LmfJDHUefE2FYPo6pSyuCXXVGK6hX3CWc86t5VRkFUxCkadV8Pi+jYAqCx44d688Gr169+gIqwFRwD0Asl7Cng8RBeonuI/Leo48+uoQzLBFSltvb23tYISxv3ry5vHDhwvL999+n9Ux+BFPQYruzzm/h+iWLFnQZ5SRdMSuoxrExHclGj62TRF9BQBAQBEaNgHd3JnTuF4JAxonHYXW5FFxFTpFF02GT41ODVzBqPujoqg9gX2dCscECfgY5P8PO4i9CykQpmMnQsYafdd6XZ+XX0cVU5x4r0HUuruClS5cotCkEqbsxo37Vp2RUF8N2rkPYMz6BVd7XYA5/buPb2tqaQTHuYupuL5pRCsY4Q5tyRMOytUYQl3q6tUjxLsb6ubZBdHedbtUOxCgEHWGmTbYz9Gxubs6w0FddbHV3m5w4BXOEGezR1N1qdXergsW7WFcQWyq1sq3agVhcwd3d3TmcWHku7p/Os3pxjjCjI6inXQhGOUmOMKMrpaddChbvYl2pW7duDc8GEWZqu8MN8toeXQh2dvG77777PLxtSTuYOJaUVjuWuECYUBuYtHmJY+/+/fvLJ554Qm1ifvrpp3vnzp1bomLawKzr1xHU0zWDlfAqCG/7K4T8HudNeBuS880qDSA259CR6JtQjB7EUvl3796l9CYaModiKo3r33G9H3/88QzIqUCNAjPI4HGZWYyzV0FMKr9scGe4QIPqyQIpCJFeBYs7CSEPpVQcpDTHRFfbvQjqhTLvhP6NZOvdrdelp4MV7OPpBL27daX0dPEuNioPsMFgBHXBfXS3Ll/SgoAgIAgIAoKAICAICAKCgCBwBBCgJXPSEbERnCR/hUIfYv/tsyuUjyqatJzTa8ixYa3LS02/+eabx5966qn72KI4lSojpdxaF+wpCrvKnDp1itvivWPlKp9K50pTyw+mHB7Rpi3IDWzz0F5p46BNEPxeaWSsSFjZhX3157hZ4ZOv59E+LvZ3idSwQLj1HLoQuI/rZXKkewUwx82U0EbeuXOHNss3AFabBfJg6d1jDq1L55uMC5MFUsNgZQ0LJHLV6AaAq7p2rxbYw1THeW8ct1voFg3h1LDAy5cvzx977DGyTgPcHK7dK4Alpzi4pzWHFTZAIkSre/mUtC3QaZnEHHJMyYWdozCAdQHloodgp3gmA2B1z48aZbgpEVwAVo9lEYttmUQLOnp14YhpTJCyYHI+Aka3qF2jMN3Ix4tCjQGGJ992bAxVhvh6BbDkNIZu7lOD2kbh6jY5ZRuW5rJMYgw9puTCKgai4Y1RuHrWhTDJDmCvFlhyGoP39+aVCzdiIOhqsICrGgASvXJtgx5qfcTXK4AlpzFwU98ozJ5mgAsXnuOlScLBoBMh9GDBofyD5eMYCAUbYLhioMu1Yxo5GQDhisoC4aWNGMgA4my4qsu1jySAGH3ZGBoWiLzWGMjAAjAD2BgAV46BPQwUMfq38f7RJuKlcLXMA90Al2IgHlMkdoNul/ddJwNYcoDwNSAkz2eBBKDt2iEymYfNnq8neXa5qgvYGBCSLdBXyY0bNx7HI56P07yLn+SlNLbdVawhGh0kg9L842s81qzydnZ26vLEw3QMGPv0I34s4fbhovv4ZoO6BonOdRog7TNQGh1J9WjyypsJvQAI8L4O/U6R4jzSURqNZYXpUqUBDJ3pOWx1TWesXVUaW1QqjxqLg55gVnRK8zKMzuiYGR7LrvMonwoQPzZMlQykLz/33HNvEJ0P2gKDfq1bYMzTde4FwMVi8YeuioeQz50GXdhio9XqBUCXFmNxbZf+bXQ2+7a87DS40/cglG58K7eiCipXZj0arl3xMmvNp9N119bptmzOq/iVDm2uTZXJIQgIAoKAICAICAKCgCAgCAgCgoAgIAgIAoKAICAICAKCgCAgCAgCk0KA7zFENQr3NrZxv+F/UYXKMF/BExPny1R1UEvqkwmN509KKu2p65wnr5es1NuanyFt8KTAC2fPnn27F80iha7rIackC4T7qnJ4KiD5qaZIfAbLngQgWsOxM/mO/mARiVRsJQBxU1oAjASc2ZUFCoCJn6MFcMpy8WTVKGIgpl2v4HeRez/nOXUU7oyBMa95FXjatbcPUSTFwOqhHXqN1BcDXw7s6Q8C+QbJtpIF+mIgrIq+C8+WOsjG51AqyQJR8ahiYA6gXDJSAZRRuEI0CUC47iQAzDE6JwEI8CcBINqx8uicNIjwWhj/VsA5D4yZxrjii00vMN2xq+y87tMCQ6cxnUpWDIOc7iRZIBrU6cIyjfHbhQKQ3h7ys00/N8mFx7YW7rMbkwCEQmKBVa+sBKBvKddnrw9JdtIgwpsJ/PZlW4NkGtOGyiFNWS79t51DUiMl05gGJIeEzhgo05hDsNpSnQC2FZoiLWkQ4c0EmQcm3hOBJSng8bklXwycosE12pRkgTwK0zcNGhKPGCFpGgOMOmOgTGP8ltQJIIrLNMaDoXJ9fPnMGQNlGuNBj0dh/naLh3XyWUmDCFBRLkwfvZk8Qh0NXAlA+mJQh/zJZycByPdE8LklZwycPHJVA5MARFnlwjiLBSZaigBYAbfSRBqT5RevXr26R4/6Vpur9LW1g0+zgUAWig+JEammURr/eJrY6Wtsis5n2l+kNLHTD6P8Hq73t7e3FY3S9A+qtS+2UQihr7OtLZSkAvhrKP5jKP4WfvQJu6o/4Nu4ph8fnMd0fPBrA8BwtuJFB6hrAGPQAf4G/QBaTWcawN7g//CNjqzzSyeSAMQk+SfXrl37D5T9Ln7ARj10TqjRj/53tUprdIq1/Pk6+l/rNW9FV/kVXaUteoNG+TiYTueb6Jgv4Fz0SAKQNFwsFr/EiX5H+qCek2MFBATAFcCjogLgigAmx0BfvRhgPkfTFOKh6QinaZpC10QnGqfpzD/Ko+kKb9badN7AoDOvxbWP0PLEXk2hSBYGGqbRZfYjO4AA76fQcguKK2XpI698VB/+50vjTNMb+tFB0xp8yNbIty+Ih6c/9A+nXFMZ6GMXzXqdHUA8M/g6gPoOtDxA8GC6UaeZTnMQWJdNV9eUx3zVWdFhtK10jV/xURmL9z465zXQsx/ZATx9+vSH0PI32TUdqEAZRFbsGAFwRQCzu7BPHwT0yY3OHHR97c6Sx6NzFmGZhSwWi4upIotZ4FEbnVM7RMoJAoKAICAICAKCgCAgCAgCgoAgIAgIAoKAICAICAKCgCAgCAgCgoAgIAgIAoKAICAICAKCgCAgCAgCgoAgIAgIAoKAICAICAKCgCBQHIFij+Zzy65cufI0Xmyjt7O/hd8Ofvw2oHoTkN481Gj8hqDK0+mUrniRrGXo/G1lqBB/lIA+sNDGo+rvkG3U2aaLT7YqjAoqvdWlzo+sj0D8C36/wmsDt4lhqkdRA8T7IRcB9KtTBbOndr2O71L8qCfZaxdb7N2aqqXf1luMN1xfhIf/CzRyBOUMly5dmm1tbc3wP67UNaLljH5UDq8bz/CmqkrT+datW610ymM+GHydxmvHdFmX5zSddX66xtdVFB+l6aD6D1LtabzvrXiYTefn8noevpiqxBEfjjqNNh4DLn8/IKu/P8RfMUANkOSk1hFKBgxrDzQeEpPlTqkght9j/Amhql00VE/2KP2CMEcJBag2z5oswLENoxFALzN1jNZqgAB60t6tG1JomqYfFu+kMSptgEZ9mOvI8GtZGz55Y2A09SlK0UUIhhNjGjj14cWyraBLWnDhQ1c6b3AEvH79+jl8AOsbVBhy/nTmzJkruqAhposaIAAwhpdUA8RHsb4KWb/F75lMoH4AOS9ju4P+AfJaD1rppxggOTdw+QErD0P8PtI/5+uhno1wX0BJwwBRX7B3W7rlND4STYZMMtd+8HaQpkgqRqnltKr7TxaNgBh/DYOnz0mnNBGR6kxKuTGUuX379hyf1K5VRWQLxchwbmA9CgM0DKJudX8JA6TUIbg/9dYvmYZgS4tQQ0otZ1VX9lIMsCzenbVlHII76xoCQ9EhGA02vFQiYNMEbAOMGEoNbCG5M3IOYdVcNALC4Iz6ZB+waYDYPjEwAkfQHNC+g9JlgOiLGVbKtGo+Rb9q1Yxk2WOUEbCHbZjcqCdv6xgbpQdadUayTMqXqsdQ1/Y2IzP3hQ0u/QOlxDpyb8MkquEslrytYw/BqCEII/sWXsD0xhiyI4Z6Z6NTMkYZAae8DUOPjNE/1+IjwJCYdZTnohEQCBn1Ycc/aH4zSmQTlcY2jIERxARhxM9PatV2RU4jAqJcF78mOl/Sbmw+ye2SjEZP3bvbIfBT7WlK6NBI95AtyV0GFctvic9zWdQAaeWlqy0GqKNxkLYNENQuQ2oKGRGlqAECF8MAsQ0zaXBT7CB1ERIbAWO3bVLaElKm6CIE3m0YPJ59C5rf2A2Z8jYMDHBuPSYZhBHdwsNeXg1V19CdsGquZedMGAaRU7BDVq4IONltGH4ZivGb+jSlaAQEqIYBpoI75W2Y1Dlg7NCdsGpmn8h6HmsEzArCkISlGuCQ2hCjS1EDRMQz6sOcJWh+E9OgsfPSHFBvAwwyCKPYCBi7aNF1ypk2GptTsEOWMQTLKriJUmoE5Jf0NYneHQYxQCBF/2VeA0ySQCDVAMcKXtFFiA3uzs5OkgFOeRvGxgiGFYSR/SR11wIvdtumLwMvPQQb9a0wB5zsNgy+MWNgBEPqZQ4YO2fsywCLRkA0wpgDpg7Bsg3TlzmUl2t4W4HqDQNEBAwaXgroNZgq7CEY10EYxUa0WP6+ACpqgBhOxAA7etI2QLAHGWCH2MFmFzVAoGDUt7u7GzS/GSx6PSgGAzQwQhVBGMVGtNhtmx6aqkTaje2rHiXX9u4LFy5M2rtTwLQxgowgjGwDxLW3XOyqOaUtIWWKGiAUMobgUHBDGjIVHvpyqt6Wru0UnXeMaTHAgfVaagS0y3UZrh0xAYM3YvYFU2kDNOoDaEHzm74aP0S5wCQJo1iDiuXvC6ui+4DwyhsA+GluDO5orMXruP4xnIHZnTHomaqj4W2pQkLL4eGDz4P3H6H8wrdxBRh8MwQHep3T4vM695GMgGfPnt0FSC9ZQMnlEUagaAQ8wjj33vRVFyGIiN6I2VcDxAD7Qraw3NghNdZg+2qOGGBfyIrcIATEAINgGj6THdGgsXdIjY2YfSFQdBsmtRH4J4dfQtmv4Gev9FJFTr4cDPLwJeGW1tKqGY/l6zleg9UZc6bHEgG/iEaL8QX2PIzvI7xf/EYg+1rZDBdYqyaeyheLxWuebMlKQMAesrtu3SVUEVRkLBEwqDHCND4ExADH12dZNB7KIkQMMEt3jk+IPQSjBWtZhIxiDhjbvbJqjkUMK7yOVXO8xLASU42AsmoO63/FNaZVc0SzhFUQEAQEAUFAEBAEBAFBQBAQBAQBQUAQEAQEAUFAEBAEBAFBQBAQBAQBQUAQEAQEAUFAEBAEBAFBQBAQBASBo4TA/wGSzn6wMtCrYgAAAABJRU5ErkJggg==;labelBackgroundColor=none;strokeColor=#000000;fillColor=#4D4D4D;fontSize=12;fontColor=#FFFFFF;align=left;labelPosition=right;" parent="1" vertex="1">
                    <mxGeometry x="630" y="270" width="40" height="40" as="geometry"/>
                </mxCell>
                <mxCell id="KOSUviGnnStbs8bRk7O3-65" value="issue_template.yaml" style="shape=image;verticalLabelPosition=middle;verticalAlign=middle;imageAspect=0;aspect=fixed;image=data:image/png,iVBORw0KGgoAAAANSUhEUgAAAKAAAACgCAYAAAH8yFe7AAAABGdBTUEAALGPC/xhBQAAADhlWElmTU0AKgAAAAgAAYdpAAQAAAABAAAAGgAAAAAAAqACAAQAAAABAAAAoKADAAQAAAABAAAAoAAAAACEJDuzAAAR8klEQVR4Ae1dTYwdRxHe99Z2snEiL5sQISuW8mKbA1ISIl84ckMgfiQ4gAQHDignOOTECcVw4ciFQ0AKNySUG+LAEXHiQKyAQnzBsRM54mBi45UTJ/55u3zVOzXb3TPd092vp9/MbI30dnqqq6urv66q/pmf3dg4csfMbvF77723b9Ps6wcPHjx9/vz5/9r05Otr167dcxU+5srQNX322WeNlsxmsweuck6BthBLQLxAXUMWxpXs7+/XAtH8i4vF4iLzJGnoa/KcJcecdQ3tckkCs2sIrWoMs2joa3KjU9Br/0STjqPmEyh4HOkTSB9H+gTT0dubtmZ83RAIE3iRM1POSZ3iq6ihoc5MRqtfS1oQOEDAiMSIgf8G+VwXOBwXu/g22oKqXeidd94hV3QeTk8h4W0VPPnkk+TnGy6jd3qKq1mffPKJEuhS0SmwTTuq5OHDh2kCXRo+8sgjXoFODF1N6tIwWuBxHK7KiB4tcLlc5hW4t7fnFWj08okTJ06id9/Wxw/HuGJ4mA6BIfD06dN3kfm8zrD2tFN10szlXrrW+kRJp0taEDgiCLSNASlNR3TZhKyHKWWjg2tKJVCO4qdzku+TWUTBe/fu0Xy/VjAkgLHSRRQ8efIkLUxqBblyOncpW0RB7CUYCOoKdqWN0a6LmfJDHUefE2FYPo6pSyuCXXVGK6hX3CWc86t5VRkFUxCkadV8Pi+jYAqCx44d688Gr169+gIqwFRwD0Asl7Cng8RBeonuI/Leo48+uoQzLBFSltvb23tYISxv3ry5vHDhwvL999+n9Ux+BFPQYruzzm/h+iWLFnQZ5SRdMSuoxrExHclGj62TRF9BQBAQBEaNgHd3JnTuF4JAxonHYXW5FFxFTpFF02GT41ODVzBqPujoqg9gX2dCscECfgY5P8PO4i9CykQpmMnQsYafdd6XZ+XX0cVU5x4r0HUuruClS5cotCkEqbsxo37Vp2RUF8N2rkPYMz6BVd7XYA5/buPb2tqaQTHuYupuL5pRCsY4Q5tyRMOytUYQl3q6tUjxLsb6ubZBdHedbtUOxCgEHWGmTbYz9Gxubs6w0FddbHV3m5w4BXOEGezR1N1qdXergsW7WFcQWyq1sq3agVhcwd3d3TmcWHku7p/Os3pxjjCjI6inXQhGOUmOMKMrpaddChbvYl2pW7duDc8GEWZqu8MN8toeXQh2dvG77777PLxtSTuYOJaUVjuWuECYUBuYtHmJY+/+/fvLJ554Qm1ifvrpp3vnzp1bomLawKzr1xHU0zWDlfAqCG/7K4T8HudNeBuS880qDSA259CR6JtQjB7EUvl3796l9CYaModiKo3r33G9H3/88QzIqUCNAjPI4HGZWYyzV0FMKr9scGe4QIPqyQIpCJFeBYs7CSEPpVQcpDTHRFfbvQjqhTLvhP6NZOvdrdelp4MV7OPpBL27daX0dPEuNioPsMFgBHXBfXS3Ll/SgoAgIAgIAoKAICAICAKCgCBwBBCgJXPSEbERnCR/hUIfYv/tsyuUjyqatJzTa8ixYa3LS02/+eabx5966qn72KI4lSojpdxaF+wpCrvKnDp1itvivWPlKp9K50pTyw+mHB7Rpi3IDWzz0F5p46BNEPxeaWSsSFjZhX3157hZ4ZOv59E+LvZ3idSwQLj1HLoQuI/rZXKkewUwx82U0EbeuXOHNss3AFabBfJg6d1jDq1L55uMC5MFUsNgZQ0LJHLV6AaAq7p2rxbYw1THeW8ct1voFg3h1LDAy5cvzx977DGyTgPcHK7dK4Alpzi4pzWHFTZAIkSre/mUtC3QaZnEHHJMyYWdozCAdQHloodgp3gmA2B1z48aZbgpEVwAVo9lEYttmUQLOnp14YhpTJCyYHI+Aka3qF2jMN3Ix4tCjQGGJ992bAxVhvh6BbDkNIZu7lOD2kbh6jY5ZRuW5rJMYgw9puTCKgai4Y1RuHrWhTDJDmCvFlhyGoP39+aVCzdiIOhqsICrGgASvXJtgx5qfcTXK4AlpzFwU98ozJ5mgAsXnuOlScLBoBMh9GDBofyD5eMYCAUbYLhioMu1Yxo5GQDhisoC4aWNGMgA4my4qsu1jySAGH3ZGBoWiLzWGMjAAjAD2BgAV46BPQwUMfq38f7RJuKlcLXMA90Al2IgHlMkdoNul/ddJwNYcoDwNSAkz2eBBKDt2iEymYfNnq8neXa5qgvYGBCSLdBXyY0bNx7HI56P07yLn+SlNLbdVawhGh0kg9L842s81qzydnZ26vLEw3QMGPv0I34s4fbhovv4ZoO6BonOdRog7TNQGh1J9WjyypsJvQAI8L4O/U6R4jzSURqNZYXpUqUBDJ3pOWx1TWesXVUaW1QqjxqLg55gVnRK8zKMzuiYGR7LrvMonwoQPzZMlQykLz/33HNvEJ0P2gKDfq1bYMzTde4FwMVi8YeuioeQz50GXdhio9XqBUCXFmNxbZf+bXQ2+7a87DS40/cglG58K7eiCipXZj0arl3xMmvNp9N119bptmzOq/iVDm2uTZXJIQgIAoKAICAICAKCgCAgCAgCgoAgIAgIAoKAICAICAKCgCAgCAgCk0KA7zFENQr3NrZxv+F/UYXKMF/BExPny1R1UEvqkwmN509KKu2p65wnr5es1NuanyFt8KTAC2fPnn27F80iha7rIackC4T7qnJ4KiD5qaZIfAbLngQgWsOxM/mO/mARiVRsJQBxU1oAjASc2ZUFCoCJn6MFcMpy8WTVKGIgpl2v4HeRez/nOXUU7oyBMa95FXjatbcPUSTFwOqhHXqN1BcDXw7s6Q8C+QbJtpIF+mIgrIq+C8+WOsjG51AqyQJR8ahiYA6gXDJSAZRRuEI0CUC47iQAzDE6JwEI8CcBINqx8uicNIjwWhj/VsA5D4yZxrjii00vMN2xq+y87tMCQ6cxnUpWDIOc7iRZIBrU6cIyjfHbhQKQ3h7ys00/N8mFx7YW7rMbkwCEQmKBVa+sBKBvKddnrw9JdtIgwpsJ/PZlW4NkGtOGyiFNWS79t51DUiMl05gGJIeEzhgo05hDsNpSnQC2FZoiLWkQ4c0EmQcm3hOBJSng8bklXwycosE12pRkgTwK0zcNGhKPGCFpGgOMOmOgTGP8ltQJIIrLNMaDoXJ9fPnMGQNlGuNBj0dh/naLh3XyWUmDCFBRLkwfvZk8Qh0NXAlA+mJQh/zJZycByPdE8LklZwycPHJVA5MARFnlwjiLBSZaigBYAbfSRBqT5RevXr26R4/6Vpur9LW1g0+zgUAWig+JEammURr/eJrY6Wtsis5n2l+kNLHTD6P8Hq73t7e3FY3S9A+qtS+2UQihr7OtLZSkAvhrKP5jKP4WfvQJu6o/4Nu4ph8fnMd0fPBrA8BwtuJFB6hrAGPQAf4G/QBaTWcawN7g//CNjqzzSyeSAMQk+SfXrl37D5T9Ln7ARj10TqjRj/53tUprdIq1/Pk6+l/rNW9FV/kVXaUteoNG+TiYTueb6Jgv4Fz0SAKQNFwsFr/EiX5H+qCek2MFBATAFcCjogLgigAmx0BfvRhgPkfTFOKh6QinaZpC10QnGqfpzD/Ko+kKb9badN7AoDOvxbWP0PLEXk2hSBYGGqbRZfYjO4AA76fQcguKK2XpI698VB/+50vjTNMb+tFB0xp8yNbIty+Ih6c/9A+nXFMZ6GMXzXqdHUA8M/g6gPoOtDxA8GC6UaeZTnMQWJdNV9eUx3zVWdFhtK10jV/xURmL9z465zXQsx/ZATx9+vSH0PI32TUdqEAZRFbsGAFwRQCzu7BPHwT0yY3OHHR97c6Sx6NzFmGZhSwWi4upIotZ4FEbnVM7RMoJAoKAICAICAKCgCAgCAgCgoAgIAgIAoKAICAICAKCgCAgCAgCgoAgIAgIAoKAICAICAKCgCAgCAgCgoAgIAgIAoKAICAICAKCgCBQHIFij+Zzy65cufI0Xmyjt7O/hd8Ofvw2oHoTkN481Gj8hqDK0+mUrniRrGXo/G1lqBB/lIA+sNDGo+rvkG3U2aaLT7YqjAoqvdWlzo+sj0D8C36/wmsDt4lhqkdRA8T7IRcB9KtTBbOndr2O71L8qCfZaxdb7N2aqqXf1luMN1xfhIf/CzRyBOUMly5dmm1tbc3wP67UNaLljH5UDq8bz/CmqkrT+datW610ymM+GHydxmvHdFmX5zSddX66xtdVFB+l6aD6D1LtabzvrXiYTefn8noevpiqxBEfjjqNNh4DLn8/IKu/P8RfMUANkOSk1hFKBgxrDzQeEpPlTqkght9j/Amhql00VE/2KP2CMEcJBag2z5oswLENoxFALzN1jNZqgAB60t6tG1JomqYfFu+kMSptgEZ9mOvI8GtZGz55Y2A09SlK0UUIhhNjGjj14cWyraBLWnDhQ1c6b3AEvH79+jl8AOsbVBhy/nTmzJkruqAhposaIAAwhpdUA8RHsb4KWb/F75lMoH4AOS9ju4P+AfJaD1rppxggOTdw+QErD0P8PtI/5+uhno1wX0BJwwBRX7B3W7rlND4STYZMMtd+8HaQpkgqRqnltKr7TxaNgBh/DYOnz0mnNBGR6kxKuTGUuX379hyf1K5VRWQLxchwbmA9CgM0DKJudX8JA6TUIbg/9dYvmYZgS4tQQ0otZ1VX9lIMsCzenbVlHII76xoCQ9EhGA02vFQiYNMEbAOMGEoNbCG5M3IOYdVcNALC4Iz6ZB+waYDYPjEwAkfQHNC+g9JlgOiLGVbKtGo+Rb9q1Yxk2WOUEbCHbZjcqCdv6xgbpQdadUayTMqXqsdQ1/Y2IzP3hQ0u/QOlxDpyb8MkquEslrytYw/BqCEII/sWXsD0xhiyI4Z6Z6NTMkYZAae8DUOPjNE/1+IjwJCYdZTnohEQCBn1Ycc/aH4zSmQTlcY2jIERxARhxM9PatV2RU4jAqJcF78mOl/Sbmw+ye2SjEZP3bvbIfBT7WlK6NBI95AtyV0GFctvic9zWdQAaeWlqy0GqKNxkLYNENQuQ2oKGRGlqAECF8MAsQ0zaXBT7CB1ERIbAWO3bVLaElKm6CIE3m0YPJ59C5rf2A2Z8jYMDHBuPSYZhBHdwsNeXg1V19CdsGquZedMGAaRU7BDVq4IONltGH4ZivGb+jSlaAQEqIYBpoI75W2Y1Dlg7NCdsGpmn8h6HmsEzArCkISlGuCQ2hCjS1EDRMQz6sOcJWh+E9OgsfPSHFBvAwwyCKPYCBi7aNF1ypk2GptTsEOWMQTLKriJUmoE5Jf0NYneHQYxQCBF/2VeA0ySQCDVAMcKXtFFiA3uzs5OkgFOeRvGxgiGFYSR/SR11wIvdtumLwMvPQQb9a0wB5zsNgy+MWNgBEPqZQ4YO2fsywCLRkA0wpgDpg7Bsg3TlzmUl2t4W4HqDQNEBAwaXgroNZgq7CEY10EYxUa0WP6+ACpqgBhOxAA7etI2QLAHGWCH2MFmFzVAoGDUt7u7GzS/GSx6PSgGAzQwQhVBGMVGtNhtmx6aqkTaje2rHiXX9u4LFy5M2rtTwLQxgowgjGwDxLW3XOyqOaUtIWWKGiAUMobgUHBDGjIVHvpyqt6Wru0UnXeMaTHAgfVaagS0y3UZrh0xAYM3YvYFU2kDNOoDaEHzm74aP0S5wCQJo1iDiuXvC6ui+4DwyhsA+GluDO5orMXruP4xnIHZnTHomaqj4W2pQkLL4eGDz4P3H6H8wrdxBRh8MwQHep3T4vM695GMgGfPnt0FSC9ZQMnlEUagaAQ8wjj33vRVFyGIiN6I2VcDxAD7Qraw3NghNdZg+2qOGGBfyIrcIATEAINgGj6THdGgsXdIjY2YfSFQdBsmtRH4J4dfQtmv4Gev9FJFTr4cDPLwJeGW1tKqGY/l6zleg9UZc6bHEgG/iEaL8QX2PIzvI7xf/EYg+1rZDBdYqyaeyheLxWuebMlKQMAesrtu3SVUEVRkLBEwqDHCND4ExADH12dZNB7KIkQMMEt3jk+IPQSjBWtZhIxiDhjbvbJqjkUMK7yOVXO8xLASU42AsmoO63/FNaZVc0SzhFUQEAQEAUFAEBAEBAFBQBAQBAQBQUAQEAQEAUFAEBAEBAFBQBAQBAQBQUAQEAQEAUFAEBAEBAFBQBAQBASBo4TA/wGSzn6wMtCrYgAAAABJRU5ErkJggg==;labelBackgroundColor=none;strokeColor=#000000;fillColor=#4D4D4D;fontSize=12;fontColor=#FFFFFF;align=left;labelPosition=right;" parent="1" vertex="1">
                    <mxGeometry x="630" y="340" width="40" height="40" as="geometry"/>
                </mxCell>
                <mxCell id="KOSUviGnnStbs8bRk7O3-68" value="project_1.yaml" style="shape=image;verticalLabelPosition=middle;verticalAlign=middle;imageAspect=0;aspect=fixed;image=data:image/png,iVBORw0KGgoAAAANSUhEUgAAAKAAAACgCAYAAAH8yFe7AAAABGdBTUEAALGPC/xhBQAAADhlWElmTU0AKgAAAAgAAYdpAAQAAAABAAAAGgAAAAAAAqACAAQAAAABAAAAoKADAAQAAAABAAAAoAAAAACEJDuzAAAR8klEQVR4Ae1dTYwdRxHe99Z2snEiL5sQISuW8mKbA1ISIl84ckMgfiQ4gAQHDignOOTECcVw4ciFQ0AKNySUG+LAEXHiQKyAQnzBsRM54mBi45UTJ/55u3zVOzXb3TPd092vp9/MbI30dnqqq6urv66q/pmf3dg4csfMbvF77723b9Ps6wcPHjx9/vz5/9r05Otr167dcxU+5srQNX322WeNlsxmsweuck6BthBLQLxAXUMWxpXs7+/XAtH8i4vF4iLzJGnoa/KcJcecdQ3tckkCs2sIrWoMs2joa3KjU9Br/0STjqPmEyh4HOkTSB9H+gTT0dubtmZ83RAIE3iRM1POSZ3iq6ihoc5MRqtfS1oQOEDAiMSIgf8G+VwXOBwXu/g22oKqXeidd94hV3QeTk8h4W0VPPnkk+TnGy6jd3qKq1mffPKJEuhS0SmwTTuq5OHDh2kCXRo+8sgjXoFODF1N6tIwWuBxHK7KiB4tcLlc5hW4t7fnFWj08okTJ06id9/Wxw/HuGJ4mA6BIfD06dN3kfm8zrD2tFN10szlXrrW+kRJp0taEDgiCLSNASlNR3TZhKyHKWWjg2tKJVCO4qdzku+TWUTBe/fu0Xy/VjAkgLHSRRQ8efIkLUxqBblyOncpW0RB7CUYCOoKdqWN0a6LmfJDHUefE2FYPo6pSyuCXXVGK6hX3CWc86t5VRkFUxCkadV8Pi+jYAqCx44d688Gr169+gIqwFRwD0Asl7Cng8RBeonuI/Leo48+uoQzLBFSltvb23tYISxv3ry5vHDhwvL999+n9Ux+BFPQYruzzm/h+iWLFnQZ5SRdMSuoxrExHclGj62TRF9BQBAQBEaNgHd3JnTuF4JAxonHYXW5FFxFTpFF02GT41ODVzBqPujoqg9gX2dCscECfgY5P8PO4i9CykQpmMnQsYafdd6XZ+XX0cVU5x4r0HUuruClS5cotCkEqbsxo37Vp2RUF8N2rkPYMz6BVd7XYA5/buPb2tqaQTHuYupuL5pRCsY4Q5tyRMOytUYQl3q6tUjxLsb6ubZBdHedbtUOxCgEHWGmTbYz9Gxubs6w0FddbHV3m5w4BXOEGezR1N1qdXergsW7WFcQWyq1sq3agVhcwd3d3TmcWHku7p/Os3pxjjCjI6inXQhGOUmOMKMrpaddChbvYl2pW7duDc8GEWZqu8MN8toeXQh2dvG77777PLxtSTuYOJaUVjuWuECYUBuYtHmJY+/+/fvLJ554Qm1ifvrpp3vnzp1bomLawKzr1xHU0zWDlfAqCG/7K4T8HudNeBuS880qDSA259CR6JtQjB7EUvl3796l9CYaModiKo3r33G9H3/88QzIqUCNAjPI4HGZWYyzV0FMKr9scGe4QIPqyQIpCJFeBYs7CSEPpVQcpDTHRFfbvQjqhTLvhP6NZOvdrdelp4MV7OPpBL27daX0dPEuNioPsMFgBHXBfXS3Ll/SgoAgIAgIAoKAICAICAKCgCBwBBCgJXPSEbERnCR/hUIfYv/tsyuUjyqatJzTa8ixYa3LS02/+eabx5966qn72KI4lSojpdxaF+wpCrvKnDp1itvivWPlKp9K50pTyw+mHB7Rpi3IDWzz0F5p46BNEPxeaWSsSFjZhX3157hZ4ZOv59E+LvZ3idSwQLj1HLoQuI/rZXKkewUwx82U0EbeuXOHNss3AFabBfJg6d1jDq1L55uMC5MFUsNgZQ0LJHLV6AaAq7p2rxbYw1THeW8ct1voFg3h1LDAy5cvzx977DGyTgPcHK7dK4Alpzi4pzWHFTZAIkSre/mUtC3QaZnEHHJMyYWdozCAdQHloodgp3gmA2B1z48aZbgpEVwAVo9lEYttmUQLOnp14YhpTJCyYHI+Aka3qF2jMN3Ix4tCjQGGJ992bAxVhvh6BbDkNIZu7lOD2kbh6jY5ZRuW5rJMYgw9puTCKgai4Y1RuHrWhTDJDmCvFlhyGoP39+aVCzdiIOhqsICrGgASvXJtgx5qfcTXK4AlpzFwU98ozJ5mgAsXnuOlScLBoBMh9GDBofyD5eMYCAUbYLhioMu1Yxo5GQDhisoC4aWNGMgA4my4qsu1jySAGH3ZGBoWiLzWGMjAAjAD2BgAV46BPQwUMfq38f7RJuKlcLXMA90Al2IgHlMkdoNul/ddJwNYcoDwNSAkz2eBBKDt2iEymYfNnq8neXa5qgvYGBCSLdBXyY0bNx7HI56P07yLn+SlNLbdVawhGh0kg9L842s81qzydnZ26vLEw3QMGPv0I34s4fbhovv4ZoO6BonOdRog7TNQGh1J9WjyypsJvQAI8L4O/U6R4jzSURqNZYXpUqUBDJ3pOWx1TWesXVUaW1QqjxqLg55gVnRK8zKMzuiYGR7LrvMonwoQPzZMlQykLz/33HNvEJ0P2gKDfq1bYMzTde4FwMVi8YeuioeQz50GXdhio9XqBUCXFmNxbZf+bXQ2+7a87DS40/cglG58K7eiCipXZj0arl3xMmvNp9N119bptmzOq/iVDm2uTZXJIQgIAoKAICAICAKCgCAgCAgCgoAgIAgIAoKAICAICAKCgCAgCAgCk0KA7zFENQr3NrZxv+F/UYXKMF/BExPny1R1UEvqkwmN509KKu2p65wnr5es1NuanyFt8KTAC2fPnn27F80iha7rIackC4T7qnJ4KiD5qaZIfAbLngQgWsOxM/mO/mARiVRsJQBxU1oAjASc2ZUFCoCJn6MFcMpy8WTVKGIgpl2v4HeRez/nOXUU7oyBMa95FXjatbcPUSTFwOqhHXqN1BcDXw7s6Q8C+QbJtpIF+mIgrIq+C8+WOsjG51AqyQJR8ahiYA6gXDJSAZRRuEI0CUC47iQAzDE6JwEI8CcBINqx8uicNIjwWhj/VsA5D4yZxrjii00vMN2xq+y87tMCQ6cxnUpWDIOc7iRZIBrU6cIyjfHbhQKQ3h7ys00/N8mFx7YW7rMbkwCEQmKBVa+sBKBvKddnrw9JdtIgwpsJ/PZlW4NkGtOGyiFNWS79t51DUiMl05gGJIeEzhgo05hDsNpSnQC2FZoiLWkQ4c0EmQcm3hOBJSng8bklXwycosE12pRkgTwK0zcNGhKPGCFpGgOMOmOgTGP8ltQJIIrLNMaDoXJ9fPnMGQNlGuNBj0dh/naLh3XyWUmDCFBRLkwfvZk8Qh0NXAlA+mJQh/zJZycByPdE8LklZwycPHJVA5MARFnlwjiLBSZaigBYAbfSRBqT5RevXr26R4/6Vpur9LW1g0+zgUAWig+JEammURr/eJrY6Wtsis5n2l+kNLHTD6P8Hq73t7e3FY3S9A+qtS+2UQihr7OtLZSkAvhrKP5jKP4WfvQJu6o/4Nu4ph8fnMd0fPBrA8BwtuJFB6hrAGPQAf4G/QBaTWcawN7g//CNjqzzSyeSAMQk+SfXrl37D5T9Ln7ARj10TqjRj/53tUprdIq1/Pk6+l/rNW9FV/kVXaUteoNG+TiYTueb6Jgv4Fz0SAKQNFwsFr/EiX5H+qCek2MFBATAFcCjogLgigAmx0BfvRhgPkfTFOKh6QinaZpC10QnGqfpzD/Ko+kKb9badN7AoDOvxbWP0PLEXk2hSBYGGqbRZfYjO4AA76fQcguKK2XpI698VB/+50vjTNMb+tFB0xp8yNbIty+Ih6c/9A+nXFMZ6GMXzXqdHUA8M/g6gPoOtDxA8GC6UaeZTnMQWJdNV9eUx3zVWdFhtK10jV/xURmL9z465zXQsx/ZATx9+vSH0PI32TUdqEAZRFbsGAFwRQCzu7BPHwT0yY3OHHR97c6Sx6NzFmGZhSwWi4upIotZ4FEbnVM7RMoJAoKAICAICAKCgCAgCAgCgoAgIAgIAoKAICAICAKCgCAgCAgCgoAgIAgIAoKAICAICAKCgCAgCAgCgoAgIAgIAoKAICAICAKCgCBQHIFij+Zzy65cufI0Xmyjt7O/hd8Ofvw2oHoTkN481Gj8hqDK0+mUrniRrGXo/G1lqBB/lIA+sNDGo+rvkG3U2aaLT7YqjAoqvdWlzo+sj0D8C36/wmsDt4lhqkdRA8T7IRcB9KtTBbOndr2O71L8qCfZaxdb7N2aqqXf1luMN1xfhIf/CzRyBOUMly5dmm1tbc3wP67UNaLljH5UDq8bz/CmqkrT+datW610ymM+GHydxmvHdFmX5zSddX66xtdVFB+l6aD6D1LtabzvrXiYTefn8noevpiqxBEfjjqNNh4DLn8/IKu/P8RfMUANkOSk1hFKBgxrDzQeEpPlTqkght9j/Amhql00VE/2KP2CMEcJBag2z5oswLENoxFALzN1jNZqgAB60t6tG1JomqYfFu+kMSptgEZ9mOvI8GtZGz55Y2A09SlK0UUIhhNjGjj14cWyraBLWnDhQ1c6b3AEvH79+jl8AOsbVBhy/nTmzJkruqAhposaIAAwhpdUA8RHsb4KWb/F75lMoH4AOS9ju4P+AfJaD1rppxggOTdw+QErD0P8PtI/5+uhno1wX0BJwwBRX7B3W7rlND4STYZMMtd+8HaQpkgqRqnltKr7TxaNgBh/DYOnz0mnNBGR6kxKuTGUuX379hyf1K5VRWQLxchwbmA9CgM0DKJudX8JA6TUIbg/9dYvmYZgS4tQQ0otZ1VX9lIMsCzenbVlHII76xoCQ9EhGA02vFQiYNMEbAOMGEoNbCG5M3IOYdVcNALC4Iz6ZB+waYDYPjEwAkfQHNC+g9JlgOiLGVbKtGo+Rb9q1Yxk2WOUEbCHbZjcqCdv6xgbpQdadUayTMqXqsdQ1/Y2IzP3hQ0u/QOlxDpyb8MkquEslrytYw/BqCEII/sWXsD0xhiyI4Z6Z6NTMkYZAae8DUOPjNE/1+IjwJCYdZTnohEQCBn1Ycc/aH4zSmQTlcY2jIERxARhxM9PatV2RU4jAqJcF78mOl/Sbmw+ye2SjEZP3bvbIfBT7WlK6NBI95AtyV0GFctvic9zWdQAaeWlqy0GqKNxkLYNENQuQ2oKGRGlqAECF8MAsQ0zaXBT7CB1ERIbAWO3bVLaElKm6CIE3m0YPJ59C5rf2A2Z8jYMDHBuPSYZhBHdwsNeXg1V19CdsGquZedMGAaRU7BDVq4IONltGH4ZivGb+jSlaAQEqIYBpoI75W2Y1Dlg7NCdsGpmn8h6HmsEzArCkISlGuCQ2hCjS1EDRMQz6sOcJWh+E9OgsfPSHFBvAwwyCKPYCBi7aNF1ypk2GptTsEOWMQTLKriJUmoE5Jf0NYneHQYxQCBF/2VeA0ySQCDVAMcKXtFFiA3uzs5OkgFOeRvGxgiGFYSR/SR11wIvdtumLwMvPQQb9a0wB5zsNgy+MWNgBEPqZQ4YO2fsywCLRkA0wpgDpg7Bsg3TlzmUl2t4W4HqDQNEBAwaXgroNZgq7CEY10EYxUa0WP6+ACpqgBhOxAA7etI2QLAHGWCH2MFmFzVAoGDUt7u7GzS/GSx6PSgGAzQwQhVBGMVGtNhtmx6aqkTaje2rHiXX9u4LFy5M2rtTwLQxgowgjGwDxLW3XOyqOaUtIWWKGiAUMobgUHBDGjIVHvpyqt6Wru0UnXeMaTHAgfVaagS0y3UZrh0xAYM3YvYFU2kDNOoDaEHzm74aP0S5wCQJo1iDiuXvC6ui+4DwyhsA+GluDO5orMXruP4xnIHZnTHomaqj4W2pQkLL4eGDz4P3H6H8wrdxBRh8MwQHep3T4vM695GMgGfPnt0FSC9ZQMnlEUagaAQ8wjj33vRVFyGIiN6I2VcDxAD7Qraw3NghNdZg+2qOGGBfyIrcIATEAINgGj6THdGgsXdIjY2YfSFQdBsmtRH4J4dfQtmv4Gev9FJFTr4cDPLwJeGW1tKqGY/l6zleg9UZc6bHEgG/iEaL8QX2PIzvI7xf/EYg+1rZDBdYqyaeyheLxWuebMlKQMAesrtu3SVUEVRkLBEwqDHCND4ExADH12dZNB7KIkQMMEt3jk+IPQSjBWtZhIxiDhjbvbJqjkUMK7yOVXO8xLASU42AsmoO63/FNaZVc0SzhFUQEAQEAUFAEBAEBAFBQBAQBAQBQUAQEAQEAUFAEBAEBAFBQBAQBAQBQUAQEAQEAUFAEBAEBAFBQBAQBASBo4TA/wGSzn6wMtCrYgAAAABJRU5ErkJggg==;labelBackgroundColor=none;strokeColor=#000000;fillColor=#4D4D4D;fontSize=12;fontColor=#FFFFFF;align=left;labelPosition=right;" parent="1" vertex="1">
                    <mxGeometry x="630" y="410" width="40" height="40" as="geometry"/>
                </mxCell>
                <mxCell id="KOSUviGnnStbs8bRk7O3-69" value="project_1.yaml" style="shape=image;verticalLabelPosition=middle;verticalAlign=middle;imageAspect=0;aspect=fixed;image=data:image/png,iVBORw0KGgoAAAANSUhEUgAAAKAAAACgCAYAAAH8yFe7AAAABGdBTUEAALGPC/xhBQAAADhlWElmTU0AKgAAAAgAAYdpAAQAAAABAAAAGgAAAAAAAqACAAQAAAABAAAAoKADAAQAAAABAAAAoAAAAACEJDuzAAAR8klEQVR4Ae1dTYwdRxHe99Z2snEiL5sQISuW8mKbA1ISIl84ckMgfiQ4gAQHDignOOTECcVw4ciFQ0AKNySUG+LAEXHiQKyAQnzBsRM54mBi45UTJ/55u3zVOzXb3TPd092vp9/MbI30dnqqq6urv66q/pmf3dg4csfMbvF77723b9Ps6wcPHjx9/vz5/9r05Otr167dcxU+5srQNX322WeNlsxmsweuck6BthBLQLxAXUMWxpXs7+/XAtH8i4vF4iLzJGnoa/KcJcecdQ3tckkCs2sIrWoMs2joa3KjU9Br/0STjqPmEyh4HOkTSB9H+gTT0dubtmZ83RAIE3iRM1POSZ3iq6ihoc5MRqtfS1oQOEDAiMSIgf8G+VwXOBwXu/g22oKqXeidd94hV3QeTk8h4W0VPPnkk+TnGy6jd3qKq1mffPKJEuhS0SmwTTuq5OHDh2kCXRo+8sgjXoFODF1N6tIwWuBxHK7KiB4tcLlc5hW4t7fnFWj08okTJ06id9/Wxw/HuGJ4mA6BIfD06dN3kfm8zrD2tFN10szlXrrW+kRJp0taEDgiCLSNASlNR3TZhKyHKWWjg2tKJVCO4qdzku+TWUTBe/fu0Xy/VjAkgLHSRRQ8efIkLUxqBblyOncpW0RB7CUYCOoKdqWN0a6LmfJDHUefE2FYPo6pSyuCXXVGK6hX3CWc86t5VRkFUxCkadV8Pi+jYAqCx44d688Gr169+gIqwFRwD0Asl7Cng8RBeonuI/Leo48+uoQzLBFSltvb23tYISxv3ry5vHDhwvL999+n9Ux+BFPQYruzzm/h+iWLFnQZ5SRdMSuoxrExHclGj62TRF9BQBAQBEaNgHd3JnTuF4JAxonHYXW5FFxFTpFF02GT41ODVzBqPujoqg9gX2dCscECfgY5P8PO4i9CykQpmMnQsYafdd6XZ+XX0cVU5x4r0HUuruClS5cotCkEqbsxo37Vp2RUF8N2rkPYMz6BVd7XYA5/buPb2tqaQTHuYupuL5pRCsY4Q5tyRMOytUYQl3q6tUjxLsb6ubZBdHedbtUOxCgEHWGmTbYz9Gxubs6w0FddbHV3m5w4BXOEGezR1N1qdXergsW7WFcQWyq1sq3agVhcwd3d3TmcWHku7p/Os3pxjjCjI6inXQhGOUmOMKMrpaddChbvYl2pW7duDc8GEWZqu8MN8toeXQh2dvG77777PLxtSTuYOJaUVjuWuECYUBuYtHmJY+/+/fvLJ554Qm1ifvrpp3vnzp1bomLawKzr1xHU0zWDlfAqCG/7K4T8HudNeBuS880qDSA259CR6JtQjB7EUvl3796l9CYaModiKo3r33G9H3/88QzIqUCNAjPI4HGZWYyzV0FMKr9scGe4QIPqyQIpCJFeBYs7CSEPpVQcpDTHRFfbvQjqhTLvhP6NZOvdrdelp4MV7OPpBL27daX0dPEuNioPsMFgBHXBfXS3Ll/SgoAgIAgIAoKAICAICAKCgCBwBBCgJXPSEbERnCR/hUIfYv/tsyuUjyqatJzTa8ixYa3LS02/+eabx5966qn72KI4lSojpdxaF+wpCrvKnDp1itvivWPlKp9K50pTyw+mHB7Rpi3IDWzz0F5p46BNEPxeaWSsSFjZhX3157hZ4ZOv59E+LvZ3idSwQLj1HLoQuI/rZXKkewUwx82U0EbeuXOHNss3AFabBfJg6d1jDq1L55uMC5MFUsNgZQ0LJHLV6AaAq7p2rxbYw1THeW8ct1voFg3h1LDAy5cvzx977DGyTgPcHK7dK4Alpzi4pzWHFTZAIkSre/mUtC3QaZnEHHJMyYWdozCAdQHloodgp3gmA2B1z48aZbgpEVwAVo9lEYttmUQLOnp14YhpTJCyYHI+Aka3qF2jMN3Ix4tCjQGGJ992bAxVhvh6BbDkNIZu7lOD2kbh6jY5ZRuW5rJMYgw9puTCKgai4Y1RuHrWhTDJDmCvFlhyGoP39+aVCzdiIOhqsICrGgASvXJtgx5qfcTXK4AlpzFwU98ozJ5mgAsXnuOlScLBoBMh9GDBofyD5eMYCAUbYLhioMu1Yxo5GQDhisoC4aWNGMgA4my4qsu1jySAGH3ZGBoWiLzWGMjAAjAD2BgAV46BPQwUMfq38f7RJuKlcLXMA90Al2IgHlMkdoNul/ddJwNYcoDwNSAkz2eBBKDt2iEymYfNnq8neXa5qgvYGBCSLdBXyY0bNx7HI56P07yLn+SlNLbdVawhGh0kg9L842s81qzydnZ26vLEw3QMGPv0I34s4fbhovv4ZoO6BonOdRog7TNQGh1J9WjyypsJvQAI8L4O/U6R4jzSURqNZYXpUqUBDJ3pOWx1TWesXVUaW1QqjxqLg55gVnRK8zKMzuiYGR7LrvMonwoQPzZMlQykLz/33HNvEJ0P2gKDfq1bYMzTde4FwMVi8YeuioeQz50GXdhio9XqBUCXFmNxbZf+bXQ2+7a87DS40/cglG58K7eiCipXZj0arl3xMmvNp9N119bptmzOq/iVDm2uTZXJIQgIAoKAICAICAKCgCAgCAgCgoAgIAgIAoKAICAICAKCgCAgCAgCk0KA7zFENQr3NrZxv+F/UYXKMF/BExPny1R1UEvqkwmN509KKu2p65wnr5es1NuanyFt8KTAC2fPnn27F80iha7rIackC4T7qnJ4KiD5qaZIfAbLngQgWsOxM/mO/mARiVRsJQBxU1oAjASc2ZUFCoCJn6MFcMpy8WTVKGIgpl2v4HeRez/nOXUU7oyBMa95FXjatbcPUSTFwOqhHXqN1BcDXw7s6Q8C+QbJtpIF+mIgrIq+C8+WOsjG51AqyQJR8ahiYA6gXDJSAZRRuEI0CUC47iQAzDE6JwEI8CcBINqx8uicNIjwWhj/VsA5D4yZxrjii00vMN2xq+y87tMCQ6cxnUpWDIOc7iRZIBrU6cIyjfHbhQKQ3h7ys00/N8mFx7YW7rMbkwCEQmKBVa+sBKBvKddnrw9JdtIgwpsJ/PZlW4NkGtOGyiFNWS79t51DUiMl05gGJIeEzhgo05hDsNpSnQC2FZoiLWkQ4c0EmQcm3hOBJSng8bklXwycosE12pRkgTwK0zcNGhKPGCFpGgOMOmOgTGP8ltQJIIrLNMaDoXJ9fPnMGQNlGuNBj0dh/naLh3XyWUmDCFBRLkwfvZk8Qh0NXAlA+mJQh/zJZycByPdE8LklZwycPHJVA5MARFnlwjiLBSZaigBYAbfSRBqT5RevXr26R4/6Vpur9LW1g0+zgUAWig+JEammURr/eJrY6Wtsis5n2l+kNLHTD6P8Hq73t7e3FY3S9A+qtS+2UQihr7OtLZSkAvhrKP5jKP4WfvQJu6o/4Nu4ph8fnMd0fPBrA8BwtuJFB6hrAGPQAf4G/QBaTWcawN7g//CNjqzzSyeSAMQk+SfXrl37D5T9Ln7ARj10TqjRj/53tUprdIq1/Pk6+l/rNW9FV/kVXaUteoNG+TiYTueb6Jgv4Fz0SAKQNFwsFr/EiX5H+qCek2MFBATAFcCjogLgigAmx0BfvRhgPkfTFOKh6QinaZpC10QnGqfpzD/Ko+kKb9badN7AoDOvxbWP0PLEXk2hSBYGGqbRZfYjO4AA76fQcguKK2XpI698VB/+50vjTNMb+tFB0xp8yNbIty+Ih6c/9A+nXFMZ6GMXzXqdHUA8M/g6gPoOtDxA8GC6UaeZTnMQWJdNV9eUx3zVWdFhtK10jV/xURmL9z465zXQsx/ZATx9+vSH0PI32TUdqEAZRFbsGAFwRQCzu7BPHwT0yY3OHHR97c6Sx6NzFmGZhSwWi4upIotZ4FEbnVM7RMoJAoKAICAICAKCgCAgCAgCgoAgIAgIAoKAICAICAKCgCAgCAgCgoAgIAgIAoKAICAICAKCgCAgCAgCgoAgIAgIAoKAICAICAKCgCBQHIFij+Zzy65cufI0Xmyjt7O/hd8Ofvw2oHoTkN481Gj8hqDK0+mUrniRrGXo/G1lqBB/lIA+sNDGo+rvkG3U2aaLT7YqjAoqvdWlzo+sj0D8C36/wmsDt4lhqkdRA8T7IRcB9KtTBbOndr2O71L8qCfZaxdb7N2aqqXf1luMN1xfhIf/CzRyBOUMly5dmm1tbc3wP67UNaLljH5UDq8bz/CmqkrT+datW610ymM+GHydxmvHdFmX5zSddX66xtdVFB+l6aD6D1LtabzvrXiYTefn8noevpiqxBEfjjqNNh4DLn8/IKu/P8RfMUANkOSk1hFKBgxrDzQeEpPlTqkght9j/Amhql00VE/2KP2CMEcJBag2z5oswLENoxFALzN1jNZqgAB60t6tG1JomqYfFu+kMSptgEZ9mOvI8GtZGz55Y2A09SlK0UUIhhNjGjj14cWyraBLWnDhQ1c6b3AEvH79+jl8AOsbVBhy/nTmzJkruqAhposaIAAwhpdUA8RHsb4KWb/F75lMoH4AOS9ju4P+AfJaD1rppxggOTdw+QErD0P8PtI/5+uhno1wX0BJwwBRX7B3W7rlND4STYZMMtd+8HaQpkgqRqnltKr7TxaNgBh/DYOnz0mnNBGR6kxKuTGUuX379hyf1K5VRWQLxchwbmA9CgM0DKJudX8JA6TUIbg/9dYvmYZgS4tQQ0otZ1VX9lIMsCzenbVlHII76xoCQ9EhGA02vFQiYNMEbAOMGEoNbCG5M3IOYdVcNALC4Iz6ZB+waYDYPjEwAkfQHNC+g9JlgOiLGVbKtGo+Rb9q1Yxk2WOUEbCHbZjcqCdv6xgbpQdadUayTMqXqsdQ1/Y2IzP3hQ0u/QOlxDpyb8MkquEslrytYw/BqCEII/sWXsD0xhiyI4Z6Z6NTMkYZAae8DUOPjNE/1+IjwJCYdZTnohEQCBn1Ycc/aH4zSmQTlcY2jIERxARhxM9PatV2RU4jAqJcF78mOl/Sbmw+ye2SjEZP3bvbIfBT7WlK6NBI95AtyV0GFctvic9zWdQAaeWlqy0GqKNxkLYNENQuQ2oKGRGlqAECF8MAsQ0zaXBT7CB1ERIbAWO3bVLaElKm6CIE3m0YPJ59C5rf2A2Z8jYMDHBuPSYZhBHdwsNeXg1V19CdsGquZedMGAaRU7BDVq4IONltGH4ZivGb+jSlaAQEqIYBpoI75W2Y1Dlg7NCdsGpmn8h6HmsEzArCkISlGuCQ2hCjS1EDRMQz6sOcJWh+E9OgsfPSHFBvAwwyCKPYCBi7aNF1ypk2GptTsEOWMQTLKriJUmoE5Jf0NYneHQYxQCBF/2VeA0ySQCDVAMcKXtFFiA3uzs5OkgFOeRvGxgiGFYSR/SR11wIvdtumLwMvPQQb9a0wB5zsNgy+MWNgBEPqZQ4YO2fsywCLRkA0wpgDpg7Bsg3TlzmUl2t4W4HqDQNEBAwaXgroNZgq7CEY10EYxUa0WP6+ACpqgBhOxAA7etI2QLAHGWCH2MFmFzVAoGDUt7u7GzS/GSx6PSgGAzQwQhVBGMVGtNhtmx6aqkTaje2rHiXX9u4LFy5M2rtTwLQxgowgjGwDxLW3XOyqOaUtIWWKGiAUMobgUHBDGjIVHvpyqt6Wru0UnXeMaTHAgfVaagS0y3UZrh0xAYM3YvYFU2kDNOoDaEHzm74aP0S5wCQJo1iDiuXvC6ui+4DwyhsA+GluDO5orMXruP4xnIHZnTHomaqj4W2pQkLL4eGDz4P3H6H8wrdxBRh8MwQHep3T4vM695GMgGfPnt0FSC9ZQMnlEUagaAQ8wjj33vRVFyGIiN6I2VcDxAD7Qraw3NghNdZg+2qOGGBfyIrcIATEAINgGj6THdGgsXdIjY2YfSFQdBsmtRH4J4dfQtmv4Gev9FJFTr4cDPLwJeGW1tKqGY/l6zleg9UZc6bHEgG/iEaL8QX2PIzvI7xf/EYg+1rZDBdYqyaeyheLxWuebMlKQMAesrtu3SVUEVRkLBEwqDHCND4ExADH12dZNB7KIkQMMEt3jk+IPQSjBWtZhIxiDhjbvbJqjkUMK7yOVXO8xLASU42AsmoO63/FNaZVc0SzhFUQEAQEAUFAEBAEBAFBQBAQBAQBQUAQEAQEAUFAEBAEBAFBQBAQBAQBQUAQEAQEAUFAEBAEBAFBQBAQBASBo4TA/wGSzn6wMtCrYgAAAABJRU5ErkJggg==;labelBackgroundColor=none;strokeColor=#000000;fillColor=#4D4D4D;fontSize=12;fontColor=#FFFFFF;align=left;labelPosition=right;" parent="1" vertex="1">
                    <mxGeometry x="630" y="450" width="40" height="40" as="geometry"/>
                </mxCell>
                <mxCell id="KOSUviGnnStbs8bRk7O3-70" value="Create" style="shape=singleArrow;whiteSpace=wrap;html=1;labelBackgroundColor=none;strokeColor=#314354;fillColor=#647687;fontSize=32;fontColor=#ffffff;align=center;arrowWidth=0.6833333333333333;arrowSize=0.22631578947368422;" parent="1" vertex="1">
                    <mxGeometry x="370" y="280" width="180" height="120" as="geometry"/>
                </mxCell>
            </root>
        </mxGraphModel>
    </diagram>
</mxfile>